<svg xmlns="http://www.w3.org/2000/svg" width="235" height="433.855" viewBox="0 0 235 433.855">
  <g id="woman_sitting" transform="translate(-580.94 -45.192)">
    <path id="Tracé_91" data-name="Tracé 91" d="M446.05,153.94l2.84,5.75,6.34.92-4.59,4.47,1.08,6.32-5.67-2.98-5.67,2.98,1.08-6.32-4.58-4.47,6.34-.92Z" transform="translate(356 2)" fill="#f5f5f5"/>
    <path id="Tracé_92" data-name="Tracé 92" d="M314.49,138.66l-2.82.46-7.56-7.59-.91-5.64s-4.41.44-2.7,7.74.85,5.51.85,5.51-9.27,1.53-9.91,2.46c-.46.68.77,9.93,1.48,14.94a5.47,5.47,0,0,0,4.72,4.82,3.86,3.86,0,0,0,1,0c2.31-.38,13.82-4.17,13.82-4.17l4.88-.79Z" transform="translate(356 2)" fill="#ebebeb"/>
    <rect id="Rectangle_27" data-name="Rectangle 27" width="20.64" height="21.9" transform="matrix(1, -0.005, 0.005, 1, 697.511, 60.202)" fill="#ebebeb"/>
    <rect id="Rectangle_28" data-name="Rectangle 28" width="20.64" height="21.9" transform="matrix(1, -0.005, 0.005, 1, 718.061, 60.09)" fill="#f5f5f5"/>
    <rect id="Rectangle_29" data-name="Rectangle 29" width="37.5" height="17.84" transform="matrix(1, -0.005, 0.005, 1, 684.638, 81.821)" fill="#ebebeb"/>
    <rect id="Rectangle_30" data-name="Rectangle 30" width="37.5" height="17.84" transform="matrix(1, -0.005, 0.005, 1, 721.967, 81.619)" fill="#f5f5f5"/>
    <rect id="Rectangle_31" data-name="Rectangle 31" width="145.3" height="6.39" transform="translate(670.64 99.69)" fill="#e0e0e0"/>
    <rect id="Rectangle_32" data-name="Rectangle 32" width="5.9" height="21.81" transform="translate(694.42 102.76)" fill="#e0e0e0"/>
    <rect id="Rectangle_33" data-name="Rectangle 33" width="5.9" height="21.81" transform="translate(782.47 102.76)" fill="#e0e0e0"/>
    <rect id="Rectangle_34" data-name="Rectangle 34" width="7.97" height="54.55" transform="matrix(1, -0.005, 0.005, 1, 774.34, 45.236)" fill="#ebebeb"/>
    <rect id="Rectangle_35" data-name="Rectangle 35" width="12.39" height="44.21" transform="matrix(1, -0.005, 0.005, 1, 782.375, 55.412)" fill="#f5f5f5"/>
    <rect id="Rectangle_36" data-name="Rectangle 36" width="13.48" height="33.37" transform="translate(794.81 66.23)" fill="#ebebeb"/>
    <rect id="Rectangle_37" data-name="Rectangle 37" width="1.42" height="32.45" transform="translate(777.5 60.83)" fill="#e0e0e0"/>
    <path id="Tracé_102" data-name="Tracé 102" d="M422.2,194.95l2.84,5.75,6.34.92-4.59,4.47,1.09,6.32-5.68-2.98-5.67,2.98,1.09-6.32-4.59-4.47,6.34-.92Z" transform="translate(356 2)" fill="#ebebeb"/>
    <g id="freepik--Character--inject-2" transform="translate(356 -1.401)">
      <path id="Tracé_181" data-name="Tracé 181" d="M375.79,206.22a10.82,10.82,0,0,0,13.71-10.69c-.07-3.14-1.49-6.34-.51-9.32.67-2.05,2.39-3.65,3-5.73.86-3.1-1-6.24-2.81-8.91a20.75,20.75,0,0,0-3.92-4.77,7.11,7.11,0,0,0-5.75-1.7" fill="#263238"/>
      <path id="Tracé_182" data-name="Tracé 182" d="M346.82,165.38c.18,2.37-1.39,4.49-3,6.27s-3.34,3.63-3.68,6c-.6,4.17,3.48,8,2.64,12.17-.45,2.21-2.26,4-2.59,6.22s.85,4.28,2.29,5.93,3.18,3,4.45,4.79c0,0,2.64,4.34,10.79,1.56" fill="#263238"/>
      <path id="Tracé_183" data-name="Tracé 183" d="M383.26,169c.06-2.15-1.92-3.81-3.93-4.59s-4.22-1.09-6-2.29c-1.58-1.06-2.64-2.72-4-4.08a13.24,13.24,0,0,0-22.26,6.08c-.77,3.06-.25,6.68,2.17,8.71,2.8,2.37,6.95,1.84,10.54,1.11s7.65-1.46,10.65.64c1.81,1.28,2.84,3.34,3.95,5.26s2.49,3.86,4.58,4.58,4.92-.52,5-2.73" fill="#263238"/>
      <path id="Tracé_184" data-name="Tracé 184" d="M374.78,169.45A3.58,3.58,0,0,1,378,173.1h0l-2.14,48.59c-.09,5.74-8.48,9-14.62,8.82h0c-6.21-.14-6.41-3.19-6.49-8.65-.13-9.12-.11-12.54-.12-12.49s-7.84-1.32-9.44-11.55c-.79-5.09-.52-13.43-.07-20.25.4-6.13,4.48-13.65,10.59-13Z" fill="#ffbe9d"/>
      <path id="Tracé_185" data-name="Tracé 185" d="M347,183.78a1.32,1.32,0,0,0,1.27,1.33,1.26,1.26,0,0,0,1.35-1.18,1.31,1.31,0,0,0-1.26-1.33,1.26,1.26,0,0,0-1.36,1.18Z" fill="#263238"/>
      <path id="Tracé_186" data-name="Tracé 186" d="M346.91,181.25c.16.17,1.15-.56,2.56-.55s2.45.71,2.6.54-.09-.38-.54-.71a3.59,3.59,0,0,0-2.08-.65,3.34,3.34,0,0,0-2,.66C347,180.87,346.83,181.18,346.91,181.25Z" fill="#263238"/>
      <path id="Tracé_187" data-name="Tracé 187" d="M361.1,184.2a1.31,1.31,0,0,0,1.26,1.33,1.26,1.26,0,0,0,1.36-1.18,1.32,1.32,0,0,0-1.27-1.33,1.25,1.25,0,0,0-1.35,1.18Z" fill="#263238"/>
      <path id="Tracé_188" data-name="Tracé 188" d="M360.78,182.21c.16.17,1.16-.56,2.57-.55s2.45.71,2.6.54-.09-.39-.54-.72a3.62,3.62,0,0,0-2.08-.64,3.46,3.46,0,0,0-2.05.65C360.85,181.82,360.7,182.13,360.78,182.21Z" fill="#263238"/>
      <path id="Tracé_189" data-name="Tracé 189" d="M355.63,192.67a9,9,0,0,0-2.29-.42c-.36,0-.7-.11-.76-.36a1.92,1.92,0,0,1,.24-1.07l1.08-2.74a49.3,49.3,0,0,0,2.41-7.17c-.16-.06-1.5,3.06-3,7-.35,1-.7,1.88-1,2.76a2,2,0,0,0-.19,1.41.89.89,0,0,0,.59.53,2.432,2.432,0,0,0,.61.09,9.21,9.21,0,0,0,2.31-.03Z" fill="#263238"/>
      <path id="Tracé_190" data-name="Tracé 190" d="M354.62,209.37a26,26,0,0,0,13.71-3.62s-3.47,7-13.71,6Z" fill="#eb996e"/>
      <path id="Tracé_191" data-name="Tracé 191" d="M356.22,196.07a2.54,2.54,0,0,1,2.29-.94,2.34,2.34,0,0,1,1.6.87,1.47,1.47,0,0,1,.11,1.68,1.72,1.72,0,0,1-1.86.46,5.37,5.37,0,0,1-1.8-1.08,1.6,1.6,0,0,1-.4-.42.49.49,0,0,1,0-.52" fill="#eb996e"/>
      <path id="Tracé_192" data-name="Tracé 192" d="M360.15,179.74c.14.38,1.55.2,3.2.41s3,.65,3.22.31c.1-.16-.13-.53-.67-.9A5.61,5.61,0,0,0,361,179C360.4,179.25,360.09,179.55,360.15,179.74Z" fill="#263238"/>
      <path id="Tracé_193" data-name="Tracé 193" d="M347.43,177.83c.25.32,1.22,0,2.39,0s2.16.22,2.39-.12c.1-.16,0-.48-.49-.78a3.18,3.18,0,0,0-1.94-.53,3.28,3.28,0,0,0-1.91.64C347.46,177.35,347.32,177.67,347.43,177.83Z" fill="#263238"/>
      <path id="Tracé_194" data-name="Tracé 194" d="M381.93,203.1a9.09,9.09,0,0,1-10.81-10c.32-2.51,1.67-5.06.8-7.44-1.15-3.15-5.56-4.11-6.73-7.25-.68-1.82-.07-4-.84-5.74s-2.49-2.65-4.21-3.27-3.56-1-5-2.18-2.34-3.24-1.41-4.81a96.641,96.641,0,0,1,22.35,5.43c1.67.62,3.42,1.37,4.41,2.85s1,3.6.91,5.49l-1.29,27.55" fill="#263238"/>
      <path id="Tracé_195" data-name="Tracé 195" d="M387.33,169.86a.8.8,0,0,1,.17.42,1.56,1.56,0,0,1-.39,1.23,2.57,2.57,0,0,1-1.83.93,5.88,5.88,0,0,1-2.59-.78,7.36,7.36,0,0,0-3-.88,15.4,15.4,0,0,0-3.61.33,24.418,24.418,0,0,1-4.09.52,5.88,5.88,0,0,1-4.18-1.52,12.22,12.22,0,0,1-2.42-3.74,18.06,18.06,0,0,0-1.95-3.51,5.71,5.71,0,0,0-5.9-2.16,6,6,0,0,0-3.56,2.64,12.925,12.925,0,0,0-.75,1.51,1.13,1.13,0,0,1,.07-.44,5.759,5.759,0,0,1,.5-1.18,5.885,5.885,0,0,1,6.93-2.83,6.21,6.21,0,0,1,3.1,2.15,19,19,0,0,1,2,3.59,12,12,0,0,0,2.31,3.58,5.35,5.35,0,0,0,3.83,1.39,24.851,24.851,0,0,0,4-.48,15.409,15.409,0,0,1,3.72-.29,7.45,7.45,0,0,1,3.12,1,5.84,5.84,0,0,0,2.42.82,2.42,2.42,0,0,0,1.68-.76,1.52,1.52,0,0,0,.45-1.09C387.38,170,387.3,169.87,387.33,169.86Z" fill="#455a64"/>
      <path id="Tracé_196" data-name="Tracé 196" d="M381.6,166.92a7.51,7.51,0,0,1,.37-14.71,4.55,4.55,0,0,1,4.49,1.41c.94,1.27.88,3.18,2.07,4.22s3.24.63,4.9,1a5.56,5.56,0,0,1,4,6,7.54,7.54,0,0,1-4.73,5.83,11.87,11.87,0,0,1-7.72.15,29,29,0,0,1-7.06-3.43" fill="#263238"/>
      <path id="Tracé_197" data-name="Tracé 197" d="M393.9,159.53a4.681,4.681,0,0,1-.75,1.87,10.49,10.49,0,0,1-8.07,5,4.59,4.59,0,0,1-2-.15c0-.09.77,0,2-.22a12,12,0,0,0,4.4-1.63,11.76,11.76,0,0,0,3.39-3.23,18.66,18.66,0,0,1,1.03-1.64Z" fill="#455a64"/>
      <path id="Tracé_198" data-name="Tracé 198" d="M388.48,170.84a16.12,16.12,0,0,0-11-6.3,4.86,4.86,0,0,1,1.95,0,12.71,12.71,0,0,1,4.44,1.55,12.4,12.4,0,0,1,3.58,3.06,4.71,4.71,0,0,1,1.03,1.69Z" fill="#ff725e"/>
      <path id="Tracé_199" data-name="Tracé 199" d="M361.09,194.82a6.41,6.41,0,0,1-2.56,2.07,7,7,0,0,1-3.11,1.09,20.682,20.682,0,0,1,2.86-1.55A28.611,28.611,0,0,1,361.09,194.82Z" fill="#263238"/>
      <path id="Tracé_200" data-name="Tracé 200" d="M387.52,169.66a1.09,1.09,0,0,1,.38-.14,8.069,8.069,0,0,1,1.13-.25,11.819,11.819,0,0,1,4.25.14,9.349,9.349,0,0,1,2.79,1.05,1.72,1.72,0,0,1,.8,1.59,1.35,1.35,0,0,1-.52.86,2.33,2.33,0,0,1-.89.38,6.18,6.18,0,0,1-1.87,0,14.179,14.179,0,0,1-1.9-.31,13.472,13.472,0,0,1-1.9-.6,4,4,0,0,1-1.73-1.26,2.72,2.72,0,0,1-.41-2.11c.12-.69.3-1.3.45-1.93a12.5,12.5,0,0,1,1.36-3.51,2.36,2.36,0,0,1,1.49-1.12,1.46,1.46,0,0,1,1.62.74,2.24,2.24,0,0,1-.08,1.64,10.132,10.132,0,0,1-.62,1.28A10,10,0,0,1,389,169.3a10.664,10.664,0,0,1-1,.61c-.24.11-.37.17-.38.15s.47-.3,1.24-.92a10.569,10.569,0,0,0,2.64-3.18,9.481,9.481,0,0,0,.56-1.25,1.84,1.84,0,0,0,.07-1.32,1,1,0,0,0-1.15-.46,1.87,1.87,0,0,0-1.17.92,13,13,0,0,0-1.27,3.37c-.25,1.22-.86,2.61-.1,3.62a5.92,5.92,0,0,0,3.32,1.66,14.609,14.609,0,0,0,1.83.32,6.189,6.189,0,0,0,1.72,0c.54-.1,1-.39,1.06-.84a1.32,1.32,0,0,0-.6-1.17,9,9,0,0,0-2.62-1,12.79,12.79,0,0,0-4.15-.3C388.07,169.57,387.53,169.71,387.52,169.66Z" fill="#ff725e"/>
      <path id="Tracé_201" data-name="Tracé 201" d="M377,164a.585.585,0,0,1-.14.3,3.09,3.09,0,0,1-.66.7,4.49,4.49,0,0,1-3.38.75,8.52,8.52,0,0,1-4.43-2.64c-1.39-1.35-2.67-3.09-4.55-4.16a8.07,8.07,0,0,0-5.87-.74,7.69,7.69,0,0,0-4.1,2.65,8.41,8.41,0,0,0-1.56,3c-.22.77-.27,1.22-.31,1.22s0-.12,0-.33a5.387,5.387,0,0,1,.13-.94,8.15,8.15,0,0,1,5.73-6.05,8.42,8.42,0,0,1,6.25.76c2,1.15,3.3,2.94,4.64,4.27a8.29,8.29,0,0,0,4.15,2.61,4.32,4.32,0,0,0,3.2-.55,6,6,0,0,0,.9-.85Z" fill="#455a64"/>
      <path id="Tracé_202" data-name="Tracé 202" d="M337.94,228.72s-7.2,4.52-8.05,15.78-3.32,34.76-3.32,34.76L299.1,286l3.06,16.48,45.32-12.64Z" fill="#ff725e"/>
      <path id="Tracé_203" data-name="Tracé 203" d="M376.84,215.64l4.49,5.11s11.69,2.77,14.23,3.86-4,25-4,25l1,49.15a6.19,6.19,0,0,1-6.75,6.29L341.4,301.1l-3.82-55.45.38-16.94,10.59-3.66,6.12-6.06,4.85,10.87Z" fill="#ff725e"/>
      <path id="Tracé_204" data-name="Tracé 204" d="M395.56,224.61s9.05,3.47,9.82,17.12c.51,9,3.66,24.33,5.76,33.76a20.33,20.33,0,0,1-2.75,15.42h0a20.37,20.37,0,0,1-16.25,9.35l-19.24.85-8.12-12.93,21.57-6.28,5.12-31.11Z" fill="#ff725e"/>
      <path id="Tracé_205" data-name="Tracé 205" d="M399.45,289.35a13.619,13.619,0,0,1-.27-1.49,18.092,18.092,0,0,0-1.14-3.94,10.7,10.7,0,0,0-3.68-4.66,7.76,7.76,0,0,0-3.22-1.32,10.74,10.74,0,0,0-3.77.18,114.624,114.624,0,0,0-13.13,3.6l-3.92,1.33a9,9,0,0,1-1.47.42,8.118,8.118,0,0,1,1.4-.61l3.86-1.49a97.774,97.774,0,0,1,13.16-3.77,11.271,11.271,0,0,1,4-.17,8.29,8.29,0,0,1,3.41,1.44,10.81,10.81,0,0,1,3.74,4.91,16.242,16.242,0,0,1,1,4.05A5.671,5.671,0,0,1,399.45,289.35Z" fill="#263238"/>
      <path id="Tracé_206" data-name="Tracé 206" d="M387.29,250.84a3.521,3.521,0,0,1,.16,1c.07.65.13,1.6.19,2.77.11,2.46.26,5.62.41,9.11a70,70,0,0,0,1,9c.44,2.28.91,3.65.82,3.68a3.752,3.752,0,0,1-.4-.94,8.52,8.52,0,0,1-.37-1.14c-.14-.44-.28-1-.41-1.53a54.122,54.122,0,0,1-1.17-9.07c-.19-3.57-.22-6.8-.25-9.13v-2.77A4,4,0,0,1,387.29,250.84Z" fill="#263238"/>
      <path id="Tracé_207" data-name="Tracé 207" d="M406.48,294.13a7.38,7.38,0,0,1-1,1,24.482,24.482,0,0,1-3.18,2.33,27.19,27.19,0,0,1-12.35,3.88,25.88,25.88,0,0,1-7.17-.54c-2.17-.46-4-1.24-5.6-1.61a25.535,25.535,0,0,0-3.87-.54,5.16,5.16,0,0,1-1.42-.29s.52,0,1.44.09a21.4,21.4,0,0,1,3.93.38c1.65.34,3.49,1.08,5.62,1.5a26.6,26.6,0,0,0,7,.49,28.3,28.3,0,0,0,12.2-3.68,52.253,52.253,0,0,0,4.4-3.01Z" fill="#263238"/>
      <path id="Tracé_208" data-name="Tracé 208" d="M381.08,267.69a7,7,0,0,1-.85,1.11,35.993,35.993,0,0,1-2.59,2.78,48.208,48.208,0,0,1-4.26,3.71,54.661,54.661,0,0,1-5.78,3.82,52.913,52.913,0,0,1-6.25,3,48.072,48.072,0,0,1-5.38,1.73,34.6,34.6,0,0,1-3.72.78,7.393,7.393,0,0,1-1.39.16,7,7,0,0,1,1.35-.36c.87-.18,2.13-.49,3.66-.93a53.885,53.885,0,0,0,5.3-1.83,59.206,59.206,0,0,0,6.18-3,60.762,60.762,0,0,0,5.74-3.75c1.67-1.28,3.13-2.5,4.3-3.59s2.08-2,2.69-2.66a7.13,7.13,0,0,1,1-.97Z" fill="#263238"/>
      <g id="Groupe_86" data-name="Groupe 86" opacity="0.2">
        <path id="Tracé_209" data-name="Tracé 209" d="M353.63,283.82c-1.24-1-.48-3.2.93-4s3.11-.6,4.71-.64a18,18,0,0,0,10.94-4.1c2.27-1.88,4.31-4.44,7.23-4.83-.67,2.39-3.55,4.72-5.58,6.15-5.89,4.16-12.38,5.72-19.22,8.09"/>
      </g>
      <path id="Tracé_210" data-name="Tracé 210" d="M380.34,221.31a4.129,4.129,0,0,1-.69.74c-.47.45-1.15,1.08-2,1.86-1.71,1.56-4.09,3.68-6.73,6a20,20,0,0,1-4,3,6.45,6.45,0,0,1-2.14.66,4.68,4.68,0,0,1-1.94-.23,3.63,3.63,0,0,1-2.16-1.73,2,2,0,0,1-.24-.72.821.821,0,0,1,0-.27c.05,0,.1.36.42.89a3.57,3.57,0,0,0,2.1,1.48,4.55,4.55,0,0,0,1.79.15,6.14,6.14,0,0,0,2-.66,20.59,20.59,0,0,0,3.88-3c2.65-2.32,5.07-4.4,6.84-5.89.88-.74,1.6-1.33,2.11-1.73a4,4,0,0,1,.76-.55Z" fill="#263238"/>
      <path id="Tracé_211" data-name="Tracé 211" d="M358.18,230.36a5.179,5.179,0,0,1-1.46,1.73,9.769,9.769,0,0,1-2,1.38,2,2,0,0,1-1.56.29,2.29,2.29,0,0,1-1.09-1.3c-.89-1.91-1.66-3.66-2.2-4.93a8.851,8.851,0,0,1-.78-2.1,9.57,9.57,0,0,1,1.11,1.95c.62,1.23,1.46,3,2.35,4.86.21.47.45.92.79,1a1.55,1.55,0,0,0,1.17-.25,11.573,11.573,0,0,0,2-1.24C357.57,231,358.11,230.3,358.18,230.36Z" fill="#263238"/>
      <path id="Tracé_212" data-name="Tracé 212" d="M358.25,252.57c-.14,0,0-5.07.31-11.31s.69-11.3.83-11.29,0,5.07-.31,11.31S358.39,252.58,358.25,252.57Z" fill="#263238"/>
      <path id="Tracé_213" data-name="Tracé 213" d="M339.11,250.27a19,19,0,0,1,0-6.27A19,19,0,0,1,339.11,250.27Z" fill="#263238"/>
      <path id="Tracé_214" data-name="Tracé 214" d="M378.06,230.67a.19.19,0,0,0,.09.05.11.11,0,0,0-.09-.05Z" fill="#fbfbfb"/>
      <path id="Tracé_215" data-name="Tracé 215" d="M378.15,230.72Z" fill="#fbfbfb"/>
      <path id="Tracé_216" data-name="Tracé 216" d="M384.86,230.2Z" fill="#fbfbfb"/>
      <path id="Tracé_217" data-name="Tracé 217" d="M379.81,231.15h0c.09,0,0,0,.1.06s.13,0,.16,0h.12a7.7,7.7,0,0,0,1,.15h0a.1.1,0,0,1,.11.08h.83a.58.58,0,0,0,.19,0h0a5.577,5.577,0,0,0,.59-.1h.07v.08h1c.05,0,0,.05,0,.05h.08v-.07H384s0-.06.1-.05h.35a.535.535,0,0,0,.26-.06,3.991,3.991,0,0,0,.07-.91h-.1a.16.16,0,0,1-.1,0h0c-.08,0-.12.05-.2,0h-.27l-1.15.06h-1.22a.42.42,0,0,0-.16,0h-.17a6.34,6.34,0,0,1-1-.14,2.354,2.354,0,0,1-.27,0h0c-.09,0-.58-.12-.68-.13h0c-.09,0-.07,0-.14-.06s-.08.05-.11,0h0a.8.8,0,0,1-.22,0h0a.69.69,0,0,1-.22,0,1.339,1.339,0,0,0-.37-.11l-.07-.09h0s-.34.7-.2.9h.08c.02,0,0,0,.05.05a6,6,0,0,0,.8.23h.24a3.407,3.407,0,0,1,.51.06Z" fill="#fbfbfb"/>
      <path id="Tracé_218" data-name="Tracé 218" d="M378.63,234.9h.06a.06.06,0,0,0-.06,0Z" fill="#fbfbfb"/>
      <path id="Tracé_219" data-name="Tracé 219" d="M378.69,234.95h0v0Z" fill="#fbfbfb"/>
      <path id="Tracé_220" data-name="Tracé 220" d="M383.38,233.88Z" fill="#fbfbfb"/>
      <path id="Tracé_221" data-name="Tracé 221" d="M379.91,235.23h0c.06,0,0,.05.07,0s.09,0,.11,0h0a4.2,4.2,0,0,0,.72.06h-.01a.09.09,0,0,1,.09.07h.59a.22.22,0,0,0,.14,0h0a1.247,1.247,0,0,0,.41-.14h.05v.08l.7-.1v.05h.06v-.06H383a.062.062,0,0,1,.07-.06,2.169,2.169,0,0,0,.25,0h0a.235.235,0,0,0,.18-.08,4.431,4.431,0,0,0-.1-.9h-.07c-.06,0-.08.06-.14,0h-.18c-.14,0-.65.14-.79.15h0a6.053,6.053,0,0,0-.83.1h-.23a2.66,2.66,0,0,1-.7-.05h-.19c-.06,0-.4-.06-.47-.06h-.1c-.04,0-.06.05-.08.05h0a.61.61,0,0,1-.15,0h-.15c-.03,0-.17-.09-.26-.08l-.05-.07h0s-.28.72-.19.91h.07a2.83,2.83,0,0,0,.59.15h.17a1.732,1.732,0,0,1,.26-.02Z" fill="#fbfbfb"/>
      <path id="Tracé_222" data-name="Tracé 222" d="M377.08,241.68a.07.07,0,0,0,.07,0A.09.09,0,0,0,377.08,241.68Z" fill="#fbfbfb"/>
      <path id="Tracé_223" data-name="Tracé 223" d="M377.15,241.71h0Z" fill="#fbfbfb"/>
      <path id="Tracé_224" data-name="Tracé 224" d="M382.35,240.35Z" fill="#fbfbfb"/>
      <path id="Tracé_225" data-name="Tracé 225" d="M378.47,241.71h.95c.06,0,.07,0,.09.07h.15c.15,0,.1-.06.14,0h.31a.35.35,0,0,0,.14,0h0a1.471,1.471,0,0,0,.44-.13h0v.09a7.207,7.207,0,0,1,.75-.05v.05h.06v-.07h.05s0-.06.08,0a2.26,2.26,0,0,0,.26,0h0a.4.4,0,0,0,.2-.05,4.494,4.494,0,0,0,.07-.9h-.12a.11.11,0,0,1-.08,0h-.37c-.16,0-.78.07-.94.08h0a7.055,7.055,0,0,0-1,.1.22.22,0,0,0-.14,0h-.13a5.509,5.509,0,0,1-.81,0h-.9c-.06,0-.05.06-.08.07h0a.58.58,0,0,1-.17.05h-.17a.69.69,0,0,0-.32,0l-.07-.06h0s-.07.77.08.93h.71a1.132,1.132,0,0,1,.18,0h0a1.16,1.16,0,0,1,.64-.18Z" fill="#fbfbfb"/>
      <path id="Tracé_226" data-name="Tracé 226" d="M378,247.88a.07.07,0,0,0,.06,0S378,247.87,378,247.88Z" fill="#fbfbfb"/>
      <path id="Tracé_227" data-name="Tracé 227" d="M378.06,247.9Z" fill="#fbfbfb"/>
      <path id="Tracé_228" data-name="Tracé 228" d="M382.28,246Z" fill="#fbfbfb"/>
      <path id="Tracé_229" data-name="Tracé 229" d="M379.17,247.76h.17s.54-.07.64-.1,0,0-.06,0h0a.118.118,0,0,1,.1.06h0c.11-.05,0,0,.13,0s.08-.06.12-.05h.05c.05,0,.06,0,0-.05s.06,0,0,0h.18a.26.26,0,0,0,.12-.05h0a.9.9,0,0,0,.35-.18h0v.08a5.3,5.3,0,0,1,.64-.12h.05v-.07h.05a.059.059,0,0,1,.06-.06h.22s.12,0,.16-.07a4.492,4.492,0,0,0-.07-.9H382c-.06,0-.08.06-.14,0h-.19a7.313,7.313,0,0,0-.78.18h0a8,8,0,0,0-.81.2.26.26,0,0,0-.12,0h0l-.1.05a4.25,4.25,0,0,1-.69.1c-.05.05-.13,0-.18.07h0a2.72,2.72,0,0,0-.47.08h-.1c-.05,0,0,.07-.06.08h0l-.14.08h0a.531.531,0,0,1-.15.05.48.48,0,0,0-.26,0l-.07-.05h0s0,.76.2.9h0a.09.09,0,0,1,.05,0h0a4.863,4.863,0,0,0,.55-.07h.15a1.28,1.28,0,0,1,.48-.16Z" fill="#fbfbfb"/>
      <path id="Tracé_230" data-name="Tracé 230" d="M377.4,254.15h.06a.09.09,0,0,0-.06,0Z" fill="#fbfbfb"/>
      <path id="Tracé_231" data-name="Tracé 231" d="M377.46,254.18Z" fill="#fbfbfb"/>
      <path id="Tracé_232" data-name="Tracé 232" d="M381.76,252.59Z" fill="#fbfbfb"/>
      <path id="Tracé_233" data-name="Tracé 233" d="M378.57,254.12h.17a4.48,4.48,0,0,0,.64,0h-.06a.112.112,0,0,1,.09.05h.13c.13,0,.08-.06.11-.05h.23a.24.24,0,0,0,.12,0h0c.05-.05.32-.11.36-.16h0v.08c0-.01.55-.08.63-.08v.05h.05v-.07h0a.059.059,0,0,1,.06-.06,1.623,1.623,0,0,0,.22,0h0s.13,0,.17-.06a6.756,6.756,0,0,0,0-.9h-.44c-.14,0-.65.1-.79.12h0a4.116,4.116,0,0,0-.83.14h-.22a3.22,3.22,0,0,1-.69.06.262.262,0,0,0-.18.05h0a1.507,1.507,0,0,0-.47.05h-.11c-.05,0,0,.07-.06.08h0a1,1,0,0,1-.14.06h0a.48.48,0,0,1-.15,0,.47.47,0,0,0-.26,0l-.07-.06h0s0,.77.14.92h.05a4.867,4.867,0,0,0,.54,0h.15A.87.87,0,0,1,378.57,254.12Z" fill="#fbfbfb"/>
      <path id="Tracé_234" data-name="Tracé 234" d="M377.53,259.46h.06A.07.07,0,0,0,377.53,259.46Z" fill="#fbfbfb"/>
      <path id="Tracé_235" data-name="Tracé 235" d="M377.59,259.5Z" fill="#fbfbfb"/>
      <path id="Tracé_236" data-name="Tracé 236" d="M382.48,259.27Z" fill="#fbfbfb"/>
      <path id="Tracé_237" data-name="Tracé 237" d="M378.75,259.78h0c.05,0,0,.05.06.05h.11a4.67,4.67,0,0,0,.67.14v-.05h0s.06,0,.07.08h.65a3,3,0,0,0,.42,0h0v.07a4.685,4.685,0,0,1,.68.12c.09.04,0,0,0,.05s0,0,.06,0h0v-.07h0s0-.05.08,0h.43a4.828,4.828,0,0,0,.27-.86h-.05c-.07,0,0,0,0-.05s-.05,0-.07,0h-.34l-.84-.11h0a8.455,8.455,0,0,0-.88-.11.26.26,0,0,0-.12-.05h-.13a4.18,4.18,0,0,1-.72-.15h-.2c-.07,0-.43-.09-.5-.09h0c-.07,0-.06,0-.11-.05s-.06.06-.08.06h-.16a.47.47,0,0,1-.17,0,.72.72,0,0,0-.27-.06v-.08h0s-.24.73-.14.91h.06a5.277,5.277,0,0,0,.57.14h.16a1,1,0,0,1,.49.11Z" fill="#fbfbfb"/>
      <path id="Tracé_238" data-name="Tracé 238" d="M378.29,265.09a.1.1,0,0,0,.07,0,.08.08,0,0,0-.07,0Z" fill="#fbfbfb"/>
      <path id="Tracé_239" data-name="Tracé 239" d="M378.36,265.11Z" fill="#fbfbfb"/>
      <path id="Tracé_240" data-name="Tracé 240" d="M383.35,264.07Z" fill="#fbfbfb"/>
      <path id="Tracé_241" data-name="Tracé 241" d="M379.55,265h.91c.06,0,.06,0,.08.06h.14c.14,0,.1-.05.13,0h.29a.27.27,0,0,0,.13,0h0c.06,0,.36,0,.42-.08h0v.08a3.937,3.937,0,0,1,.69.08s0,.05,0,.05h.06v-.07h0s0-.05.08,0l.24.05h.19l.31-.85h-.05c-.02,0,0,0,0-.05s-.06,0-.09,0h-.37c-.16,0-.78-.08-.93-.09h0a7.992,7.992,0,0,0-1,0,.3.3,0,0,0-.13,0h-.13a7.386,7.386,0,0,1-.81,0,.31.31,0,0,0-.22.06h0a5.434,5.434,0,0,0-.55.06h-.12c-.05,0,0,.07-.07.08h0a.894.894,0,0,1-.16.07h0a.551.551,0,0,1-.17.05.66.66,0,0,0-.3,0h-.08s.06.77.23.9h0a.09.09,0,0,1,.05,0h.05a2.128,2.128,0,0,0,.58-.07h.16A.94.94,0,0,1,379.55,265Z" fill="#fbfbfb"/>
      <path id="Tracé_242" data-name="Tracé 242" d="M379.27,273.79a.07.07,0,0,0,.06,0Z" fill="#fbfbfb"/>
      <path id="Tracé_243" data-name="Tracé 243" d="M379.33,273.78Z" fill="#fbfbfb"/>
      <path id="Tracé_244" data-name="Tracé 244" d="M382.67,270.63Z" fill="#fbfbfb"/>
      <path id="Tracé_245" data-name="Tracé 245" d="M380.33,273.29h.07c.07,0,.08,0,.08-.07h0s.48-.24.56-.3,0,0-.07,0h.1c.09-.08,0,0,.11-.07s.06-.09.09-.09h0s.06,0,0-.05.06,0,0,0h0s.08,0,.09-.06h.07a.25.25,0,0,0,.1-.08h0c0-.06.25-.22.27-.29h0v.08a5.834,5.834,0,0,1,.55-.32h0v-.05h0l-.06-.05h0v-.08l.2-.1h0s.11-.07.13-.13a5.376,5.376,0,0,0-.36-.82h-.05v-.05h-.05c-.06,0-.05.08-.11.08h-.17c-.12.06-.56.35-.67.42h0c-.17.12-.54.32-.7.46s-.08,0-.11,0h0l-.09.08a3.6,3.6,0,0,1-.61.33c0,.06-.11.07-.14.11h0c-.05.05-.36.19-.42.23h0c0,.05-.05,0-.1,0s0,.08,0,.09h0a.9.9,0,0,1-.1.12h0a.349.349,0,0,1-.12.08.6.6,0,0,0-.24.12h-.09s.29.71.48.8h.05a3.711,3.711,0,0,0,.49-.24h0l.13-.09h0Z" fill="#fbfbfb"/>
      <path id="Tracé_246" data-name="Tracé 246" d="M379.35,277.52Z" fill="#fbfbfb"/>
      <path id="Tracé_247" data-name="Tracé 247" d="M379.39,277.55Z" fill="#fbfbfb"/>
      <path id="Tracé_248" data-name="Tracé 248" d="M382.05,276.2Z" fill="#fbfbfb"/>
      <path id="Tracé_249" data-name="Tracé 249" d="M380.09,277.55h0c0-.05.06,0,.06,0h0a2.676,2.676,0,0,0,.4,0h0l.06.06h.08c.08,0,0-.05.07,0h.18s.2-.08.22-.13h0v.08a1.811,1.811,0,0,1,.4,0h0v-.07h0v-.06H382a.131.131,0,0,0,.11-.06,8.807,8.807,0,0,0,0-.89h-.2c-.09,0-.41.07-.49.08h0a3.218,3.218,0,0,0-.51.09h-.14a1.251,1.251,0,0,1-.43,0h-.11a2.837,2.837,0,0,0-.29,0h-.06a.08.08,0,0,1,0,.07h0a.7.7,0,0,1-.09.06h0a.15.15,0,0,1-.09,0h-.16l-.05-.06h0a3.508,3.508,0,0,0,.11.92h0a1.9,1.9,0,0,0,.34,0h0a.29.29,0,0,0,.1,0h0a.865.865,0,0,1,.05-.09Z" fill="#fbfbfb"/>
      <g id="Groupe_87" data-name="Groupe 87" opacity="0.6">
        <path id="Tracé_250" data-name="Tracé 250" d="M365.5,237.66h.05C365.6,237.66,365.52,237.65,365.5,237.66Z" fill="#fff"/>
        <path id="Tracé_251" data-name="Tracé 251" d="M365.55,237.69Z" fill="#fff"/>
        <path id="Tracé_252" data-name="Tracé 252" d="M368.55,236Z" fill="#fff"/>
        <path id="Tracé_253" data-name="Tracé 253" d="M366.43,237.71h0s0,.05.06,0,.06,0,.07,0h0a2.831,2.831,0,0,0,.5,0h-.05a.079.079,0,0,1,.07.06h.1c.1,0,.06-.06.09,0h0s.05,0,0-.05h.14a.16.16,0,0,0,.09-.05h0c0-.05.23-.13.25-.19h0v.08c.07,0,.41-.15.47-.16h0v-.06h0v-.07l.17-.05h0a.115.115,0,0,0,.11-.09,5.3,5.3,0,0,0-.28-.85h0v-.05h0s0,.06-.08,0h-.12l-.51.21h0c-.13.06-.42.13-.56.19s0,0-.08,0h-.08a1.54,1.54,0,0,1-.48,0s-.09,0-.12.05h-.4c-.07,0,0,.06,0,.07h0a.281.281,0,0,1-.11.05h0a.23.23,0,0,1-.11,0c-.05,0-.12-.05-.19,0v-.06h0a3.22,3.22,0,0,0,0,.92h0a2,2,0,0,0,.43,0h.12Z" fill="#fff"/>
      </g>
      <g id="Groupe_88" data-name="Groupe 88" opacity="0.6">
        <path id="Tracé_254" data-name="Tracé 254" d="M365.12,241.83Z" fill="#fff"/>
        <path id="Tracé_255" data-name="Tracé 255" d="M365.16,241.87Z" fill="#fff"/>
        <path id="Tracé_256" data-name="Tracé 256" d="M368.28,241.12Z" fill="#fff"/>
        <path id="Tracé_257" data-name="Tracé 257" d="M365.9,242h0c0-.05.05,0,.07,0h0a2,2,0,0,0,.43.07v-.05h0l.05.08h.24a.13.13,0,0,0,.09,0h0s.23,0,.26-.08h0v.08a2.092,2.092,0,0,1,.43,0v.05h0v-.07h0s0-.06.05,0h.27a6.62,6.62,0,0,0,.16-.88h-.81a3.616,3.616,0,0,0-.57,0h-.16a1.431,1.431,0,0,1-.46-.07h-.13s-.27-.05-.32,0h-.07a.06.06,0,0,1-.05.06h-.1a.18.18,0,0,1-.1,0c-.05,0-.12-.06-.18,0v-.07h0a3.32,3.32,0,0,0-.08.92h0a2.208,2.208,0,0,0,.37.08h.1Z" fill="#fff"/>
      </g>
      <g id="Groupe_89" data-name="Groupe 89" opacity="0.6">
        <path id="Tracé_258" data-name="Tracé 258" d="M366.27,246.34h.05a.05.05,0,0,0-.05,0Z" fill="#fff"/>
        <path id="Tracé_259" data-name="Tracé 259" d="M366.32,246.37Z" fill="#fff"/>
        <path id="Tracé_260" data-name="Tracé 260" d="M369.48,244.78Z" fill="#fff"/>
        <path id="Tracé_261" data-name="Tracé 261" d="M367.21,246.4h.14a2.15,2.15,0,0,0,.51,0h-.05a.079.079,0,0,1,.07.06h0c.09-.05,0,0,.1,0s.06-.05.09,0h.23a1.275,1.275,0,0,0,.27-.17h0V246a4.426,4.426,0,0,1,.49-.13v.05h0v-.07h0v-.06l.18-.05h0a.115.115,0,0,0,.11-.08,6.256,6.256,0,0,0-.2-.88h0v-.05c0-.05-.05,0,0,0h0c-.05,0-.05.06-.09.05h-.13l-.55.17h0c-.14.05-.44.1-.58.16s-.06,0-.09,0h-.08a2.11,2.11,0,0,1-.5,0h-.56a.06.06,0,0,1,0,.07h0a.539.539,0,0,1-.11.06h-.3l-.05-.06h0a3,3,0,0,0,0,.93h.05a3,3,0,0,0,.43,0h.12Z" fill="#fff"/>
      </g>
      <g id="Groupe_90" data-name="Groupe 90" opacity="0.6">
        <path id="Tracé_262" data-name="Tracé 262" d="M366,253.78h.06A.07.07,0,0,0,366,253.78Z" fill="#fff"/>
        <path id="Tracé_263" data-name="Tracé 263" d="M366.06,253.79Z" fill="#fff"/>
        <path id="Tracé_264" data-name="Tracé 264" d="M369.45,251.38Z" fill="#fff"/>
        <path id="Tracé_265" data-name="Tracé 265" d="M367,253.51h.14a3.221,3.221,0,0,0,.55-.18h.03c.09-.07,0,0,.11,0s.06-.07.09-.07h0s.06,0,0-.05.06,0,0,0h0s.08,0,.09-.05h.07a.18.18,0,0,0,.09-.06h0c0-.05.25-.17.28-.23h0v.08a3.945,3.945,0,0,1,.54-.2h0v-.06h0v-.06l.19-.07h0a.133.133,0,0,0,.13-.1,5.53,5.53,0,0,0-.22-.87h0v-.05c0-.05-.05,0-.05,0h0s0,.05-.05,0h0c-.06,0-.06.06-.12.05h-.16a4.216,4.216,0,0,0-.66.28h0a6.861,6.861,0,0,0-.69.3h-.1l-.08.06a2.881,2.881,0,0,1-.59.19c0,.05-.11.05-.15.09h0s-.35.11-.4.14h-.1c-.05,0,0,.07,0,.08h0a1.061,1.061,0,0,1-.11.09h0s-.09.05-.12.07a.42.42,0,0,0-.23.06h-.07a2.76,2.76,0,0,0,.35.86h.05a4.121,4.121,0,0,0,.47-.13h0l.12-.06a1.33,1.33,0,0,1,.6-.11Z" fill="#fff"/>
      </g>
      <g id="Groupe_91" data-name="Groupe 91" opacity="0.6">
        <path id="Tracé_266" data-name="Tracé 266" d="M365.15,260.86a.07.07,0,0,0,.06,0A.07.07,0,0,0,365.15,260.86Z" fill="#fff"/>
        <path id="Tracé_267" data-name="Tracé 267" d="M365.21,260.89Z" fill="#fff"/>
        <path id="Tracé_268" data-name="Tracé 268" d="M369.88,259.08Z" fill="#fff"/>
        <path id="Tracé_269" data-name="Tracé 269" d="M366.51,261h0c.06,0,0,.05.08,0s.1,0,.11,0h0a4.841,4.841,0,0,0,.75-.06h-.02c.05,0,.07,0,.1.05h0c.13-.06,0,0,.15,0s.1-.06.14-.05h.4c.05-.05.35-.15.4-.21h0v.08l.7-.2v.05l.05-.05h0v-.06h.05a.072.072,0,0,1,.06-.07l.24-.08h0a.645.645,0,0,0,.17-.11,4.2,4.2,0,0,0-.22-.88h-.05c-.05,0,0,0,0-.05s-.05,0-.05,0h0s0,.05-.07,0h0c-.06,0-.07.07-.13.06h-.18c-.14.05-.66.24-.8.27h0l-.86.23a.25.25,0,0,0-.12,0h-.11a2.679,2.679,0,0,1-.74.06.288.288,0,0,0-.19.05h-.61c-.05,0,0,.06-.07.06h0a.5.5,0,0,1-.16.05h0a.5.5,0,0,1-.17,0,.8.8,0,0,0-.28,0l-.06-.07h0s-.15.76,0,.93h.07c.21,0,.41.05.63.05h.18A1.76,1.76,0,0,1,366.51,261Z" fill="#fff"/>
      </g>
      <g id="Groupe_92" data-name="Groupe 92" opacity="0.6">
        <path id="Tracé_270" data-name="Tracé 270" d="M365.05,267.78h.06a.05.05,0,0,0-.06,0Z" fill="#fff"/>
        <path id="Tracé_271" data-name="Tracé 271" d="M365.11,267.82Z" fill="#fff"/>
        <path id="Tracé_272" data-name="Tracé 272" d="M369.71,267.53Z" fill="#fff"/>
        <path id="Tracé_273" data-name="Tracé 273" d="M366.19,268h.22l.62.11-.05-.06c-.05-.06,0,0,.05,0s.06,0,.07.08h.31c-.01,0,0,0,0,.05h.1a.062.062,0,0,1,.06.05h.45v.08a3.874,3.874,0,0,1,.61.14v.05h.06v-.08h.05s0-.05.08,0a1.294,1.294,0,0,0,.21.07h.18l.37-.82h0c-.06,0,0,0,0-.05s-.06,0-.08,0h-.31c-.13,0-.67-.15-.81-.17h0a8.087,8.087,0,0,0-.86-.13h-.23a5.381,5.381,0,0,1-.7-.12h-.2c-.06,0-.42-.06-.49-.05h-.1c-.04,0-.06.06-.08.06h-.31a.74.74,0,0,0-.27,0l-.06-.06h0a2.538,2.538,0,0,0,0,.92h.05a4.357,4.357,0,0,0,.52.06h.15A.89.89,0,0,1,366.19,268Z" fill="#fff"/>
      </g>
      <g id="Groupe_93" data-name="Groupe 93" opacity="0.6">
        <path id="Tracé_274" data-name="Tracé 274" d="M367.21,272.41h.05a.05.05,0,0,0-.05,0Z" fill="#fff"/>
        <path id="Tracé_275" data-name="Tracé 275" d="M367.26,272.44Z" fill="#fff"/>
        <path id="Tracé_276" data-name="Tracé 276" d="M371,270.93Z" fill="#fff"/>
        <path id="Tracé_277" data-name="Tracé 277" d="M368.24,272.4h.14a5.459,5.459,0,0,0,.56,0h-.06a.079.079,0,0,1,.07.06h0c.1-.05,0,0,.11,0s.07-.06.1-.05h.16a.21.21,0,0,0,.11,0h0a.825.825,0,0,0,.32-.14h0v.09a5.526,5.526,0,0,1,.55-.07s0,0,0,.05h0v-.06h0a.059.059,0,0,1,.06-.06,1.211,1.211,0,0,0,.19,0h0s.11,0,.15-.06a6.756,6.756,0,0,0,0-.9h-.43c-.12,0-.57.09-.69.11h0a6.434,6.434,0,0,0-.72.13h-.19a3.084,3.084,0,0,1-.6,0,.2.2,0,0,0-.16.05h-.5c-.04,0,0,.06-.05.07h0a.812.812,0,0,1-.13.06h0a.21.21,0,0,1-.13,0,.46.46,0,0,0-.23,0l-.06-.06h0a2.91,2.91,0,0,0,.13.92h0a3.687,3.687,0,0,0,.47,0h0a.5.5,0,0,0,.13,0h0a.69.69,0,0,1,.7-.14Z" fill="#fff"/>
      </g>
      <g id="Groupe_94" data-name="Groupe 94" opacity="0.6">
        <path id="Tracé_278" data-name="Tracé 278" d="M364.48,283.46a.11.11,0,0,0,.1,0,.16.16,0,0,0-.1,0Z" fill="#fff"/>
        <path id="Tracé_279" data-name="Tracé 279" d="M364.58,283.47Z" fill="#fff"/>
        <path id="Tracé_280" data-name="Tracé 280" d="M370.38,280.48Z" fill="#fff"/>
        <path id="Tracé_281" data-name="Tracé 281" d="M366.22,283.22h.1c.1,0,.12,0,.14-.06h.05a4.985,4.985,0,0,0,.92-.24c.13-.06-.06,0-.09,0h.2c.16-.09,0,0,.18-.07s.11-.09.16-.09h.07c.02,0,.09,0,.06-.05s.08,0,.05,0h.05c.07,0,.12,0,.16-.06h.11l.16-.08h0c.06-.06.43-.23.48-.3h.05v.09c0-.01.75-.33.87-.37h0v-.05h0l-.05-.05h.06a.1.1,0,0,1,.07-.09l.31-.13h.05a.757.757,0,0,0,.21-.15,3.306,3.306,0,0,0-.27-.86h-.08c-.06,0,0,0,.06-.06s-.07,0-.08,0h0s0,.06-.08.06h0c-.08,0-.09.09-.17.1h-.24c-.17.07-.84.4-1,.47h0l-1.1.44a.45.45,0,0,0-.16,0h0l-.15.07a4.56,4.56,0,0,1-.95.24c-.07.06-.17.06-.25.1h0a6.016,6.016,0,0,0-.66.14h-.15c-.07,0-.05.07-.08.08h0a1.291,1.291,0,0,1-.2.09h0a.91.91,0,0,1-.21.05,1.259,1.259,0,0,0-.37.05l-.1-.05h0s0,.77.18.91h.05a.12.12,0,0,1,.08,0h.06a5.494,5.494,0,0,0,.8-.11h0l.22-.07h0a2.75,2.75,0,0,1,.48.05Z" fill="#fff"/>
      </g>
      <path id="Tracé_282" data-name="Tracé 282" d="M350.73,280.45l.08.05a.09.09,0,0,0-.08-.05Z" fill="#fbfbfb"/>
      <path id="Tracé_283" data-name="Tracé 283" d="M350.81,280.5Z" fill="#fbfbfb"/>
      <path id="Tracé_284" data-name="Tracé 284" d="M357.24,281.18Z" fill="#fbfbfb"/>
      <path id="Tracé_285" data-name="Tracé 285" d="M352.32,281h0c.07,0,0,.05.08.06a.721.721,0,0,0,.15,0h.11a8.945,8.945,0,0,0,.88.27.072.072,0,0,1-.07-.06c-.01-.06.06,0,.08,0s.07,0,.09.1h.5c-.01,0,.07,0,0,.05h0c.07,0,.1.06.15,0h0s.08,0,.08.05h0a.549.549,0,0,0,.17,0h0c.08,0,.47.06.55,0h.06s-.05.08-.06.07.78.19.88.24,0,.05,0,.05h.08v-.07h.17a1.358,1.358,0,0,1,.31.1h-.01a.366.366,0,0,0,.25,0,4.3,4.3,0,0,0,.38-.82h.05a.06.06,0,0,0-.07,0h-.05c-.02,0,0,0,0-.05s-.07,0-.1,0h-.48l-1.1-.27h0c-.29-.07-.86-.23-1.16-.28a.51.51,0,0,0-.15-.07h-.16a8.144,8.144,0,0,1-.95-.29,2,2,0,0,1-.26,0h0c-.09,0-.55-.17-.65-.19h0c-.09,0-.07,0-.13-.07s-.08.05-.11,0h0a.86.86,0,0,1-.22,0h0a.652.652,0,0,1-.21,0,1.171,1.171,0,0,0-.36-.12l-.07-.08h0s-.34.7-.21.9h.09c.03,0,0,0,0,.05.24.09.48.18.73.25h.22A2,2,0,0,1,352.32,281Z" fill="#fbfbfb"/>
      <path id="Tracé_286" data-name="Tracé 286" d="M351.58,277.16a.07.07,0,0,0,.06,0Z" fill="#fbfbfb"/>
      <path id="Tracé_287" data-name="Tracé 287" d="M351.64,277.19Z" fill="#fbfbfb"/>
      <path id="Tracé_288" data-name="Tracé 288" d="M355.88,276.37Z" fill="#fbfbfb"/>
      <path id="Tracé_289" data-name="Tracé 289" d="M352.67,277.33h.16s.51.07.6.06,0,0,0-.05h0s.05,0,.07.07h.46a.2.2,0,0,0,.11,0h0a1.189,1.189,0,0,0,.36-.09h0v.09a3.9,3.9,0,0,1,.6,0v.05c0,.05,0,0,.05,0h0v-.07h0s0-.06.07,0h.37a4.582,4.582,0,0,0,.15-.89h0c-.01,0,0,0,0-.05s0,0-.07,0h-2.03a2.727,2.727,0,0,1-.64-.06h-.72c-.09,0-.05.06-.07.06h0a.47.47,0,0,1-.14,0h0a.339.339,0,0,1-.14,0,.49.49,0,0,0-.25,0v-.06h0a2.71,2.71,0,0,0,0,.93h0a4,4,0,0,0,.5.07h.14a.76.76,0,0,1,.42-.06Z" fill="#fbfbfb"/>
      <path id="Tracé_290" data-name="Tracé 290" d="M351.25,271.65h.06A.07.07,0,0,0,351.25,271.65Z" fill="#fbfbfb"/>
      <path id="Tracé_291" data-name="Tracé 291" d="M351.31,271.66Z" fill="#fbfbfb"/>
      <path id="Tracé_292" data-name="Tracé 292" d="M354.92,269.4Z" fill="#fbfbfb"/>
      <path id="Tracé_293" data-name="Tracé 293" d="M352.32,271.42h.15a4.114,4.114,0,0,0,.58-.15h.02c.09-.06,0,0,.11,0s.06-.07.1-.06h.17a.16.16,0,0,0,.1,0h0c0-.05.27-.15.3-.21h0v.08a4,4,0,0,1,.56-.18v.05h0v-.06h0s0-.06.05-.07l.2-.05h0s.11,0,.14-.08a5.2,5.2,0,0,0-.18-.89h-.11c-.06,0-.07.06-.12.05h-.17a4.779,4.779,0,0,0-.69.25h0c-.18.07-.55.18-.73.27a.17.17,0,0,0-.1,0h0l-.09.06a2.78,2.78,0,0,1-.61.17c0,.05-.11,0-.16.08h0a2.211,2.211,0,0,0-.42.12h-.1c-.04,0,0,.07,0,.08h0a.482.482,0,0,1-.12.08h0s-.1,0-.12.06a.43.43,0,0,0-.24.06h-.07a2.6,2.6,0,0,0,.3.88h.05a3.888,3.888,0,0,0,.49-.12h0l.13-.06h0S352.31,271.42,352.32,271.42Z" fill="#fbfbfb"/>
      <path id="Tracé_294" data-name="Tracé 294" d="M351.88,266.05h.07A.06.06,0,0,0,351.88,266.05Z" fill="#fbfbfb"/>
      <path id="Tracé_295" data-name="Tracé 295" d="M351.95,266.04Z" fill="#fbfbfb"/>
      <path id="Tracé_296" data-name="Tracé 296" d="M356,263.37Z" fill="#fbfbfb"/>
      <path id="Tracé_297" data-name="Tracé 297" d="M353,265.51h.08c.08,0,.08,0,.08-.07h0s.51-.19.6-.24,0,0-.07,0h.1c.1-.08,0,0,.12-.06s.07-.07.1-.07h.05c.05,0,.06,0,0-.05s.06,0,0,0h.17l.11-.06h0c0-.05.3-.16.34-.21h0v.09a3.42,3.42,0,0,1,.63-.16h0v-.07h0a.059.059,0,0,1,.06-.06h.23s.13,0,.17-.06v-.9h-.2c-.07,0-.09.05-.15,0h-.21a8.558,8.558,0,0,0-.87.23h0a5.809,5.809,0,0,0-.88.32h-.13l-.11.07a5.423,5.423,0,0,1-.72.29c-.05.06-.13.08-.18.13h0c-.06.05-.41.2-.48.25h0c-.05.06-.06,0-.12,0s0,.08,0,.09h0l-.12.13h0a.38.38,0,0,1-.13.1.869.869,0,0,0-.26.15h-.1s.36.68.56.74h.05a4.594,4.594,0,0,0,.49-.26h0l.13-.1h0a1.5,1.5,0,0,1,.66-.22Z" fill="#fbfbfb"/>
      <path id="Tracé_298" data-name="Tracé 298" d="M348.79,258.86h.08a.09.09,0,0,0-.08,0Z" fill="#fbfbfb"/>
      <path id="Tracé_299" data-name="Tracé 299" d="M348.87,258.9Z" fill="#fbfbfb"/>
      <path id="Tracé_300" data-name="Tracé 300" d="M354.18,257.4Z" fill="#fbfbfb"/>
      <path id="Tracé_301" data-name="Tracé 301" d="M350.28,259.08h.31a5.605,5.605,0,0,0,.82,0h-.01a.1.1,0,0,1,.1.06h.17c.17,0,.1-.06.15,0h.5a1.755,1.755,0,0,0,.46-.18h.05v.09l.79-.17v.05h.06v-.06h.05a.062.062,0,0,1,.07-.06l.28-.07h0s.15,0,.2-.09a3.757,3.757,0,0,0-.13-.9h-.07s0,.05-.07,0h0c-.08,0-.09.06-.16.05h-.22c-.15,0-.75.2-.9.22h0l-1,.18a.592.592,0,0,0-.13,0h-.13a3.749,3.749,0,0,1-.82,0h-.9c-.05,0-.06.06-.08.06h-.18a.54.54,0,0,1-.18,0A1,1,0,0,0,349,258l-.06-.07h0s-.22.74-.09.92h.07c.02,0,0,0,0,.05a5.21,5.21,0,0,0,.69.1h.19A2.16,2.16,0,0,1,350.28,259.08Z" fill="#fbfbfb"/>
      <path id="Tracé_302" data-name="Tracé 302" d="M351.94,252.89a.1.1,0,0,0,.07,0,.06.06,0,0,0-.07,0Z" fill="#fbfbfb"/>
      <path id="Tracé_303" data-name="Tracé 303" d="M352.01,252.91Z" fill="#fbfbfb"/>
      <path id="Tracé_304" data-name="Tracé 304" d="M356.51,251.1Z" fill="#fbfbfb"/>
      <path id="Tracé_305" data-name="Tracé 305" d="M353.19,252.79h.17a5.461,5.461,0,0,0,.68-.08h-.02c.05,0,.06,0,.09.06h.14c.14,0,.08-.06.12,0h.25a.26.26,0,0,0,.12-.05h0c.05-.05.33-.12.38-.18h0v.08a6.232,6.232,0,0,1,.67-.11c.09,0,0,.05,0,.05h.05v-.07h0a.059.059,0,0,1,.06-.06h.24s.13,0,.18-.07a5.41,5.41,0,0,0,0-.9h-.05c-.05,0,0,0,.06-.05s-.06,0-.06,0h-.4l-.82.17h0c-.21.05-.65.12-.86.18h-.24a4.571,4.571,0,0,1-.72.09c-.06.05-.14,0-.19.06h0c-.06,0-.42,0-.49.08h-.11c-.05,0,0,.07-.06.08h0l-.15.07h-.16a.69.69,0,0,0-.28,0l-.07-.05h0s0,.77.17.91h.05a5.506,5.506,0,0,0,.57-.06h.16a2.27,2.27,0,0,1,.52-.15Z" fill="#fbfbfb"/>
      <path id="Tracé_306" data-name="Tracé 306" d="M351.11,247.76a.08.08,0,0,0,.07,0,.06.06,0,0,0-.07,0Z" fill="#fbfbfb"/>
      <path id="Tracé_307" data-name="Tracé 307" d="M351.18,247.75Z" fill="#fbfbfb"/>
      <path id="Tracé_308" data-name="Tracé 308" d="M354,244.64Z" fill="#fbfbfb"/>
      <path id="Tracé_309" data-name="Tracé 309" d="M352.07,247.26h.07c.07,0,.06,0,.06-.07h0a5.242,5.242,0,0,0,.51-.3h.03c.07-.08,0,0,.09-.07s.05-.08.08-.09h.1s.07,0,.07-.06h.07a.16.16,0,0,0,.08-.08h0c0-.06.22-.22.23-.28h0v.04a4.541,4.541,0,0,1,.49-.32h-.05v-.07l.18-.11h0a.443.443,0,0,0,.11-.12,5.5,5.5,0,0,0-.41-.8h-.05c-.05,0,0,.05,0,.05h0c-.06,0-.05.07-.11.08h-.15c-.1.06-.49.35-.59.42h0c-.15.12-.47.32-.62.46h-.1l-.07.08a2.739,2.739,0,0,1-.54.32c0,.06-.1.08-.13.12h0s-.32.19-.37.23h0c0,.05-.05,0-.09,0a.08.08,0,0,1,0,.09h0l-.09.11h0s-.09.07-.11.09-.16.05-.21.12h-.08s.34.69.52.77h0a2.7,2.7,0,0,0,.44-.24h0l.11-.09h0a1.591,1.591,0,0,1,.53-.28Z" fill="#fbfbfb"/>
      <path id="Tracé_310" data-name="Tracé 310" d="M351.12,241.74a.08.08,0,0,0,.07,0,.06.06,0,0,0-.07,0Z" fill="#fbfbfb"/>
      <path id="Tracé_311" data-name="Tracé 311" d="M351.19,241.73Z" fill="#fbfbfb"/>
      <path id="Tracé_312" data-name="Tracé 312" d="M354.78,238.12Z" fill="#fbfbfb"/>
      <path id="Tracé_313" data-name="Tracé 313" d="M352.27,241.11h.08c.08,0,.08,0,.08-.08h0s.53-.3.62-.37-.05,0-.08,0h.11c.09-.1,0,0,.12-.09s.06-.09.1-.1h0s.06,0,0-.06.07,0,0,0h0s.09,0,.1-.08h.08a.22.22,0,0,0,.1-.09h0c0-.06.27-.26.29-.32h0v.03a7.083,7.083,0,0,1,.6-.39h0l-.06-.05h0v-.08l.22-.13h0s.12-.08.14-.14a5.459,5.459,0,0,0-.39-.81h-.06v-.06c0-.06-.06,0-.06,0h0s0,.06-.05.06h0c-.07,0-.07.08-.13.09h0a.125.125,0,0,0-.09.05h-.1c-.13.07-.61.42-.73.51h0c-.18.13-.57.39-.75.54s-.09,0-.12.05h0l-.09.09a3.521,3.521,0,0,1-.66.4c0,.07-.12.09-.16.14h0c0,.05-.38.23-.44.28h0c-.05.06-.06,0-.11,0s0,.08,0,.09h0a1.011,1.011,0,0,1-.12.13h0s-.1.08-.13.1a.87.87,0,0,0-.26.15h-.09s.32.7.53.76h0v-.05h.05a5.541,5.541,0,0,0,.53-.3h0l.14-.11h0Z" fill="#fbfbfb"/>
      <path id="Tracé_314" data-name="Tracé 314" d="M353.17,236.43Z" fill="#fbfbfb"/>
      <path id="Tracé_315" data-name="Tracé 315" d="M353.21,236.44Z" fill="#fbfbfb"/>
      <path id="Tracé_316" data-name="Tracé 316" d="M354.23,234.14Z" fill="#fbfbfb"/>
      <path id="Tracé_317" data-name="Tracé 317" d="M353.69,236.12h0v-.06h0a1.569,1.569,0,0,0,.26-.19h.02c0-.07,0,0,.05-.05s0-.07,0-.07h0s.05,0,0-.05h.05a.13.13,0,0,0,0-.06h0a.637.637,0,0,0,.07-.21h0s.05.07,0,.07a2.5,2.5,0,0,1,.24-.22h-.05v-.06l.09-.07h0s.05,0,0-.09-.5-.67-.54-.71h0v.05h-.05s-.23.24-.28.29h0a2.907,2.907,0,0,0-.3.31h-.06v.06a.83.83,0,0,1-.28.21.1.1,0,0,1-.05.08h0a1.015,1.015,0,0,0-.19.15h-.06a.07.07,0,0,1,0,.07h0v.09h0v.06c0,.06-.09,0-.11.08h-.06a4.688,4.688,0,0,0,.61.69h0a1.14,1.14,0,0,0,.23-.15h0l.05-.06h0S353.68,236.12,353.69,236.12Z" fill="#fbfbfb"/>
      <path id="Tracé_318" data-name="Tracé 318" d="M368.94,227.93a.08.08,0,0,0,.07,0,.06.06,0,0,0-.07,0Z" fill="#fbfbfb"/>
      <path id="Tracé_319" data-name="Tracé 319" d="M369.01,227.92Z" fill="#fbfbfb"/>
      <path id="Tracé_320" data-name="Tracé 320" d="M372.33,224.33Z" fill="#fbfbfb"/>
      <path id="Tracé_321" data-name="Tracé 321" d="M370,227.3h.08c.08,0,.08,0,.08-.09h0s.49-.3.57-.37,0,0-.07,0h.1c.08-.1,0,0,.11-.09s.05-.09.09-.1h0s.05,0,0-.06.06,0,0,0h0a.091.091,0,0,0,.09-.08h.08a.41.41,0,0,0,.09-.1h0c0-.06.25-.25.27-.32h0v.08a5.117,5.117,0,0,1,.56-.39h0v-.06H372v-.08a2.388,2.388,0,0,0,.21-.13h0s.11-.08.13-.14a5.57,5.57,0,0,0-.42-.8h-.1c-.05,0,0,0,0-.06s-.05,0-.05,0h0a.059.059,0,0,1-.06.06h0c-.06,0-.05.08-.11.09h0a.125.125,0,0,0-.09.05h-.1c-.12.07-.56.42-.68.51h0c-.18.13-.55.39-.72.54a.154.154,0,0,0-.11.05h0l-.08.09a4.09,4.09,0,0,1-.62.4c0,.07-.11.09-.15.14h0c0,.05-.36.23-.42.28h0c0,.06-.05,0-.1,0s0,.08,0,.09h0a.571.571,0,0,1-.1.13h0a.421.421,0,0,1-.13.11.6.6,0,0,0-.24.14h-.09s.34.69.54.75h0v-.05c0-.05,0,0,.06,0a3.059,3.059,0,0,0,.49-.3h0l.12-.11h0Z" fill="#fbfbfb"/>
      <path id="Tracé_322" data-name="Tracé 322" d="M368.21,224.9Z" fill="#fbfbfb"/>
      <path id="Tracé_323" data-name="Tracé 323" d="M368.25,224.91Z" fill="#fbfbfb"/>
      <path id="Tracé_324" data-name="Tracé 324" d="M369,222.85Z" fill="#fbfbfb"/>
      <path id="Tracé_325" data-name="Tracé 325" d="M368.67,224.65h.05a.941.941,0,0,0,.23-.16h.02v-.06h0s.07-.14,0-.19h0s.05.07,0,.07a1.178,1.178,0,0,1,.21-.18h-.05v-.06a.24.24,0,0,0,.08-.06h0v-.08a6.437,6.437,0,0,0-.54-.72h0v-.05h0v.05h0c-.05,0-.2.21-.24.25h0a2.162,2.162,0,0,0-.25.27h-.05v.05a.72.72,0,0,1-.24.18v.07h0a1.308,1.308,0,0,0-.16.13h-.05a.14.14,0,0,1,0,.07h0v.07h0s-.09,0-.1.06h-.06a5.813,5.813,0,0,0,.6.71h0a1.431,1.431,0,0,0,.21-.12h0v-.06h0S368.66,224.65,368.67,224.65Z" fill="#fbfbfb"/>
      <g id="Groupe_95" data-name="Groupe 95" opacity="0.6">
        <path id="Tracé_326" data-name="Tracé 326" d="M352,227.45a.05.05,0,0,0,0,.05Z" fill="#fff"/>
        <path id="Tracé_327" data-name="Tracé 327" d="M351.96,227.5Z" fill="#fff"/>
        <path id="Tracé_328" data-name="Tracé 328" d="M354.76,228.85Z" fill="#fff"/>
        <path id="Tracé_329" data-name="Tracé 329" d="M352.37,228.2h0v.06c0,.06,0,.05.07,0h0a1.641,1.641,0,0,0,.29.36s0,0,0-.06h0v.09h0c.08,0,0,0,.07.06s.07,0,.08,0h.05a.049.049,0,0,0,.06.05h0v.06h.08c.06,0,.22.11.28.1h0l-.06.05s.31.23.35.28h.05v-.06h.07c.02,0,.08.06.12.1h0s.07.05.12,0l.55-.71h-.05c0-.05-.07,0-.08,0h0v-.05h0l-.4-.28h0c-.1-.07-.29-.25-.4-.32s0,0,0-.06h-.07a1.22,1.22,0,0,1-.27-.33c-.05,0-.05-.06-.09-.07h0a1.859,1.859,0,0,0-.17-.24h0v-.07c0-.07-.07,0-.08,0h0a.31.31,0,0,1-.1-.05h0a.508.508,0,0,1-.06-.07c-.01-.02,0-.11-.08-.15v-.06h0a3.639,3.639,0,0,0-.78.5h0v.05a2.9,2.9,0,0,0,.19.34h0l.08.08h0Z" fill="#fff"/>
      </g>
      <g id="Groupe_96" data-name="Groupe 96" opacity="0.6">
        <path id="Tracé_330" data-name="Tracé 330" d="M354.36,225.29a.05.05,0,0,0,0,.05S354.37,225.3,354.36,225.29Z" fill="#fff"/>
        <path id="Tracé_331" data-name="Tracé 331" d="M354.35,225.34v0Z" fill="#fff"/>
        <path id="Tracé_332" data-name="Tracé 332" d="M357.31,227Z" fill="#fff"/>
        <path id="Tracé_333" data-name="Tracé 333" d="M354.74,226.17h0v.06c0,.06,0,.06.07,0h0a2.608,2.608,0,0,0,.31.43v-.07h0v.1h0c.08.05,0,0,.07.07s.09,0,.1.05h.05c.05,0,0,.05,0,0h0s0,.06.08.05h0v.06h.08c.06,0,.25.12.31.11h0s-.07.06-.07,0,.36.26.41.31h.05v-.06h.07c.07,0,.1.06.15.1h.13a5.363,5.363,0,0,0,.52-.74h.05v-.05h-.09v-.05h0c-.07-.05-.37-.23-.44-.29h0l-.44-.35v-.07h0c0-.06,0,0-.07,0a1.39,1.39,0,0,1-.27-.38c-.06,0-.06-.07-.1-.08h0a3.032,3.032,0,0,0-.18-.28h0v-.07a.07.07,0,0,1-.08,0h0a.1.1,0,0,1-.09-.07h0a.813.813,0,0,1-.06-.08c-.01-.02,0-.13-.07-.17v-.06h0a3.061,3.061,0,0,0-.83.42h0a1.438,1.438,0,0,0,.18.4h0l.08.1h0Z" fill="#fff"/>
      </g>
      <g id="Groupe_97" data-name="Groupe 97" opacity="0.6">
        <path id="Tracé_334" data-name="Tracé 334" d="M338.66,237.76a.05.05,0,0,0,0,.05S338.68,237.76,338.66,237.76Z" fill="#fff"/>
        <path id="Tracé_335" data-name="Tracé 335" d="M338.69,237.81Z" fill="#fff"/>
        <path id="Tracé_336" data-name="Tracé 336" d="M342.5,238.8Z" fill="#fff"/>
        <path id="Tracé_337" data-name="Tracé 337" d="M339.47,238.35h0v.06c0,.06.06,0,.09,0h0a3.514,3.514,0,0,0,.45.3s0,0,0-.06h0v.1h.26c.01,0,0,.05,0,.05h.08v.05h0a.19.19,0,0,0,.1,0h0c.06,0,.27.09.33.07h0l-.06.06a3.638,3.638,0,0,1,.47.28h.05v-.07h.07a.877.877,0,0,1,.17.1h0s.1.05.15,0l.53-.73h.01c-.05,0,0,0,0-.05s-.05,0-.06,0h0c0-.05-.08,0-.11-.05h-.06l-.05-.06h0c-.09-.06-.49-.26-.59-.31h0a6.2,6.2,0,0,0-.63-.32s-.05,0-.07-.07h-.1a2.3,2.3,0,0,1-.49-.32.174.174,0,0,1-.15-.05h0c-.05,0-.28-.19-.34-.21h0c-.06,0,0,0-.06-.06a.08.08,0,0,1-.09,0h0a.792.792,0,0,1-.13,0h0a.23.23,0,0,1-.12-.06.507.507,0,0,0-.18-.13v-.08h0a3,3,0,0,0-.46.8h.05a2.329,2.329,0,0,0,.37.27h.12S339.47,238.34,339.47,238.35Z" fill="#fff"/>
      </g>
      <g id="Groupe_98" data-name="Groupe 98" opacity="0.6">
        <path id="Tracé_338" data-name="Tracé 338" d="M340.92,235.13Z" fill="#fff"/>
        <path id="Tracé_339" data-name="Tracé 339" d="M340.95,235.17v-.01h0Z" fill="#fff"/>
        <path id="Tracé_340" data-name="Tracé 340" d="M344,234.69Z" fill="#fff"/>
        <path id="Tracé_341" data-name="Tracé 341" d="M341.64,235.38h.07a1.8,1.8,0,0,0,.4.1v-.05h0v.07h.29s.22,0,.26-.06h0v.07a2.36,2.36,0,0,1,.4.08s0,.05,0,.05h0v-.07h0s0-.05.05,0h.26a6.018,6.018,0,0,0,.25-.87h0v-.05h-.19a4.288,4.288,0,0,0-.5-.07h0a4.693,4.693,0,0,0-.54-.06h-.13a1.589,1.589,0,0,1-.44-.12h-.12a2.635,2.635,0,0,1-.3-.07h-.06a.05.05,0,0,1-.05,0h-.19c-.01,0-.1-.07-.17-.06v-.07h0a3.431,3.431,0,0,0-.17.91h0a1.93,1.93,0,0,0,.34.11h0a.33.33,0,0,0,.1,0S341.64,235.37,341.64,235.38Z" fill="#fff"/>
      </g>
      <g id="Groupe_99" data-name="Groupe 99" opacity="0.6">
        <path id="Tracé_342" data-name="Tracé 342" d="M341.46,231.11a.07.07,0,0,0,.06,0A.115.115,0,0,0,341.46,231.11Z" fill="#fff"/>
        <path id="Tracé_343" data-name="Tracé 343" d="M341.52,231.13Z" fill="#fff"/>
        <path id="Tracé_344" data-name="Tracé 344" d="M344.61,229.06Z" fill="#fff"/>
        <path id="Tracé_345" data-name="Tracé 345" d="M342.39,230.94h.13a3,3,0,0,0,.49-.13h.03c.08-.06,0,0,.09,0s.06-.06.09-.06h.14a.16.16,0,0,0,.09,0h0c0-.05.24-.14.26-.2h0v.08a4.583,4.583,0,0,1,.49-.15h0v-.06h0v-.06l.17-.05h0a.133.133,0,0,0,.12-.08,5.086,5.086,0,0,0-.18-.88h0c-.05,0-.05.06-.1,0h-.15a4.265,4.265,0,0,0-.6.21h0c-.15.06-.47.15-.62.23a.13.13,0,0,0-.09,0h0l-.08.05a2,2,0,0,1-.53.14c0,.05-.1,0-.13.07h0a3.385,3.385,0,0,0-.37.11h-.08a.06.06,0,0,1,0,.07h0a1.153,1.153,0,0,1-.1.08h0a.15.15,0,0,1-.11.05.328.328,0,0,0-.21.05l-.06-.05h0a3.06,3.06,0,0,0,.29.88h0s.29-.05.43-.09h.11S342.39,230.93,342.39,230.94Z" fill="#fff"/>
      </g>
      <g id="Groupe_100" data-name="Groupe 100" opacity="0.6">
        <path id="Tracé_346" data-name="Tracé 346" d="M340.36,247.22a.06.06,0,0,0,.05,0Z" fill="#fff"/>
        <path id="Tracé_347" data-name="Tracé 347" d="M340.41,247.24Z" fill="#fff"/>
        <path id="Tracé_348" data-name="Tracé 348" d="M343.63,245.57Z" fill="#fff"/>
        <path id="Tracé_349" data-name="Tracé 349" d="M341.28,247.15h.13a2.841,2.841,0,0,0,.5-.06h-.05a.1.1,0,0,1,.08.06h0c.08-.05,0,0,.1,0s.06-.06.09-.05h0s.05,0,0-.05h.23a1.143,1.143,0,0,0,.26-.16h0v.09a2.54,2.54,0,0,1,.48-.09h0v-.07h0v-.06h.18a.137.137,0,0,0,.12-.07,6.545,6.545,0,0,0-.08-.89h0v-.05c0-.05-.05,0-.05,0h-.05c-.05,0-.06.05-.1,0h-.14a4.337,4.337,0,0,0-.6.14h0a6.45,6.45,0,0,0-.63.16.15.15,0,0,0-.09,0h-.08a2.491,2.491,0,0,1-.53.07.21.21,0,0,0-.14.05h0s-.31,0-.36.06h-.08a.06.06,0,0,1,0,.07h0a.478.478,0,0,1-.11.06h-.38a3.19,3.19,0,0,0,.18.91h0a3,3,0,0,0,.42,0h.12S341.27,247.15,341.28,247.15Z" fill="#fff"/>
      </g>
      <g id="Groupe_101" data-name="Groupe 101" opacity="0.6">
        <path id="Tracé_350" data-name="Tracé 350" d="M342.28,250.62Z" fill="#fff"/>
        <path id="Tracé_351" data-name="Tracé 351" d="M342.31,250.64Z" fill="#fff"/>
        <path id="Tracé_352" data-name="Tracé 352" d="M343.5,248.92Z" fill="#fff"/>
        <path id="Tracé_353" data-name="Tracé 353" d="M342.75,250.52h0a1,1,0,0,0,.24-.09h0l.05.05h0v-.05h0a.516.516,0,0,0,.09-.17h0v.08a1,1,0,0,1,.23-.11h0v-.05h.09v-.07c0-.07-.31-.78-.33-.83h0a2,2,0,0,0-.28.16h0a2.677,2.677,0,0,0-.28.18h-.06a.58.58,0,0,1-.26.09l-.05.06h0s-.16,0-.18.07h-.05a.06.06,0,0,1,0,.07h0v.07h-.16a6.25,6.25,0,0,0,.39.84h0a1.411,1.411,0,0,0,.22-.06h.05S342.75,250.51,342.75,250.52Z" fill="#fff"/>
      </g>
      <g id="Groupe_102" data-name="Groupe 102" opacity="0.6">
        <path id="Tracé_354" data-name="Tracé 354" d="M341.93,257.5Z" fill="#fff"/>
        <path id="Tracé_355" data-name="Tracé 355" d="M341.95,257.54Z" fill="#fff"/>
        <path id="Tracé_356" data-name="Tracé 356" d="M344.64,257.24Z" fill="#fff"/>
        <path id="Tracé_357" data-name="Tracé 357" d="M342.52,257.79h0c0-.05,0,0,.06,0h0a1.2,1.2,0,0,0,.33.13v-.05h0v.07h.15v.05h.36v.07a3.368,3.368,0,0,1,.34.1v.05h0v-.07h0s0-.06.06,0l.11.05h.11a5.467,5.467,0,0,0,.31-.84h-.13a3.335,3.335,0,0,1-.43-.1h0a2.261,2.261,0,0,0-.45-.1h-.13a1.4,1.4,0,0,1-.36-.13h-.11a1.369,1.369,0,0,0-.25-.09h-.05a.06.06,0,0,1,0,.05h-.17c-.02,0-.08-.07-.14-.06v-.07h0a4.308,4.308,0,0,0-.25.89h0a1.656,1.656,0,0,0,.27.13h.08S342.52,257.78,342.52,257.79Z" fill="#fff"/>
      </g>
      <g id="Groupe_103" data-name="Groupe 103" opacity="0.6">
        <path id="Tracé_358" data-name="Tracé 358" d="M342.42,265.3Z" fill="#fff"/>
        <path id="Tracé_359" data-name="Tracé 359" d="M342.46,265.31Z" fill="#fff"/>
        <path id="Tracé_360" data-name="Tracé 360" d="M344.57,263.28Z" fill="#fff"/>
        <path id="Tracé_361" data-name="Tracé 361" d="M343.12,265.12h.05c.05,0,0,0,0-.05h0a2.292,2.292,0,0,0,.37-.12h0l.07.05h0c.05-.06,0,0,.07,0s0-.06.05-.05h.11l.06-.05h0c0-.05.16-.14.17-.19h0v.09a2.321,2.321,0,0,1,.36-.16v.05h0v-.06h0v-.06h.13a.084.084,0,0,0,.08-.08,7.061,7.061,0,0,0-.28-.85h0v-.05h0s0,.06-.07,0h-.12l-.44.22h0a4.914,4.914,0,0,0-.45.24h-.07c-.06,0,0,0-.06.05a1.47,1.47,0,0,1-.4.14.1.1,0,0,0-.09.07h0a2.152,2.152,0,0,1-.27.1h-.07a.07.07,0,0,1,0,.08h0l-.06.08h0a.09.09,0,0,0-.08.05c-.02.05-.11,0-.15,0h-.06a4.049,4.049,0,0,0,.36.85h0a1.681,1.681,0,0,0,.32-.09h0l.08-.05h0S343.11,265.11,343.12,265.12Z" fill="#fff"/>
      </g>
      <g id="Groupe_104" data-name="Groupe 104" opacity="0.6">
        <path id="Tracé_362" data-name="Tracé 362" d="M343.33,269.59Z" fill="#fff"/>
        <path id="Tracé_363" data-name="Tracé 363" d="M343.37,269.62Z" fill="#fff"/>
        <path id="Tracé_364" data-name="Tracé 364" d="M345.17,267.75Z" fill="#fff"/>
        <path id="Tracé_365" data-name="Tracé 365" d="M344.07,269.57h.1a1.741,1.741,0,0,0,.39-.11h.02c.06-.06,0,0,.08,0s0-.07.05-.06h.11a.1.1,0,0,0,.06,0h0c0-.05.15-.15.15-.21h0v.08a2.749,2.749,0,0,1,.33-.21h-.05v-.07l.11-.08h0a.062.062,0,0,0,0-.1c-.06-.05-.49-.68-.53-.72h-.05c-.05,0-.23.2-.29.23h0c-.08.06-.26.15-.34.22s0,0-.05,0h0v.05a.7.7,0,0,1-.32.09.09.09,0,0,0-.08.05h0s-.19,0-.22.05h-.06c-.06,0,0,.07,0,.07h0l-.06.06h-.2v-.06h0a3.89,3.89,0,0,0,.1.92h0a1,1,0,0,0,.34,0h.09Z" fill="#fff"/>
      </g>
      <g id="Groupe_105" data-name="Groupe 105" opacity="0.6">
        <path id="Tracé_366" data-name="Tracé 366" d="M342.33,276.68Z" fill="#fff"/>
        <path id="Tracé_367" data-name="Tracé 367" d="M342.35,276.73Z" fill="#fff"/>
        <path id="Tracé_368" data-name="Tracé 368" d="M345.15,276.76Z" fill="#fff"/>
        <path id="Tracé_369" data-name="Tracé 369" d="M342.92,277h0v.05c0,.05.05,0,.07,0h0a2.059,2.059,0,0,0,.33.17v-.05h0v.08h.15v.05h.06a.06.06,0,0,0,.07,0h.24v.07a2,2,0,0,1,.34.14v.05h0v-.07h.05l.12.06h.1a6.634,6.634,0,0,0,.41-.8h0v-.05c0-.05,0,0-.05,0h-.08l-.43-.15h0a3.527,3.527,0,0,0-.46-.15h-.12a.941.941,0,0,1-.36-.18h-.11a1.22,1.22,0,0,0-.25-.11h0l-.05-.05a.07.07,0,0,1-.06.05h-.1a.13.13,0,0,1-.09,0s-.07-.08-.13-.08v-.07h0a4.17,4.17,0,0,0-.35.86h0a1.478,1.478,0,0,0,.27.16h.09Z" fill="#fff"/>
      </g>
      <g id="Groupe_106" data-name="Groupe 106" opacity="0.6">
        <path id="Tracé_370" data-name="Tracé 370" d="M344,282.72Z" fill="#fff"/>
        <path id="Tracé_371" data-name="Tracé 371" d="M344.02,282.75Z" fill="#fff"/>
        <path id="Tracé_372" data-name="Tracé 372" d="M346.51,281.24Z" fill="#fff"/>
        <path id="Tracé_373" data-name="Tracé 373" d="M344.7,282.71h.1a1.72,1.72,0,0,0,.39,0h0v.06h.28s.18-.1.2-.15h0v.08a2.319,2.319,0,0,1,.38-.07h0v-.07h.14a.118.118,0,0,0,.1-.06,6.544,6.544,0,0,0-.09-.89H346a4.008,4.008,0,0,0-.47.11h0a1.78,1.78,0,0,0-.49.13.09.09,0,0,0-.07,0h-.06a1.21,1.21,0,0,1-.42.05.126.126,0,0,0-.1.05h-.36a.07.07,0,0,1,0,.08h0a.279.279,0,0,1-.08.06h-.25v-.06h0a4,4,0,0,0,.17.91h0a1.817,1.817,0,0,0,.33,0h.09S344.69,282.7,344.7,282.71Z" fill="#fff"/>
      </g>
      <g id="Groupe_107" data-name="Groupe 107" opacity="0.6">
        <path id="Tracé_374" data-name="Tracé 374" d="M344.8,289.66a.06.06,0,0,0,.05,0,.06.06,0,0,0-.05,0Z" fill="#fff"/>
        <path id="Tracé_375" data-name="Tracé 375" d="M344.85,289.68Z" fill="#fff"/>
        <path id="Tracé_376" data-name="Tracé 376" d="M347.41,288.34Z" fill="#fff"/>
        <path id="Tracé_377" data-name="Tracé 377" d="M345.46,289.59h0c0-.05.05,0,.05,0h0a2.279,2.279,0,0,0,.36,0h0l.05.06h.07c.07,0,0-.05.06,0h.06a.08.08,0,0,0,.07,0h0a.747.747,0,0,0,.21-.13h0v.08a2.294,2.294,0,0,1,.37,0s0,.05,0,.05h0v-.07h0v-.05h.23l.14-.88h-.21a4.405,4.405,0,0,0-.52,0h0a2.519,2.519,0,0,0-.54.08h-.14a1.709,1.709,0,0,1-.45,0c0,.05-.08,0-.11.06h0s-.26,0-.3.06h-.07a.09.09,0,0,1,0,.08h0l-.08.07h-.26l-.06-.05h0a3.918,3.918,0,0,0,.3.87h0a1.362,1.362,0,0,0,.3,0h.08Z" fill="#fff"/>
      </g>
      <g id="Groupe_108" data-name="Groupe 108" opacity="0.6">
        <path id="Tracé_378" data-name="Tracé 378" d="M389.44,227.33a.06.06,0,0,0,.07,0A.158.158,0,0,0,389.44,227.33Z" fill="#fff"/>
        <path id="Tracé_379" data-name="Tracé 379" d="M389.51,227.34Z" fill="#fff"/>
        <path id="Tracé_380" data-name="Tracé 380" d="M393.43,224.81Z" fill="#fff"/>
        <path id="Tracé_381" data-name="Tracé 381" d="M390.6,227h.08c.08,0,.08,0,.09-.05h0a4.892,4.892,0,0,0,.62-.19h.08c.1-.07,0,0,.13-.06s.06-.07.1-.07h.05s.08,0,.1-.05h.07a.21.21,0,0,0,.1-.06h0a1.643,1.643,0,0,0,.32-.23h0v.09a4.55,4.55,0,0,1,.61-.22h0v-.06h0s0-.06.05-.07a1.873,1.873,0,0,0,.22-.07h0a.16.16,0,0,0,.15-.1,4.542,4.542,0,0,0-.2-.88h0v-.05c0-.05-.05,0-.05,0h0s0,.05-.06,0h0c-.06,0-.07.07-.13.06h-.18a4.692,4.692,0,0,0-.75.3h0c-.19.08-.59.22-.78.32a.25.25,0,0,0-.12,0h0l-.1.07a4.308,4.308,0,0,1-.67.21.208.208,0,0,0-.17.09h0a2.218,2.218,0,0,0-.45.16h-.11c-.05,0,0,.08,0,.09h0l-.13.1h0a.42.42,0,0,1-.14.06.92.92,0,0,0-.26.07h-.08s.16.76.33.87h.1a4.609,4.609,0,0,0,.53-.15h0l.14-.07h0a2.18,2.18,0,0,1,.51-.11Z" fill="#fff"/>
      </g>
      <g id="Groupe_109" data-name="Groupe 109" opacity="0.6">
        <path id="Tracé_382" data-name="Tracé 382" d="M392.24,229.48a.07.07,0,0,0,.06,0A.115.115,0,0,0,392.24,229.48Z" fill="#fff"/>
        <path id="Tracé_383" data-name="Tracé 383" d="M392.3,229.5Z" fill="#fff"/>
        <path id="Tracé_384" data-name="Tracé 384" d="M396.26,227.7Z" fill="#fff"/>
        <path id="Tracé_385" data-name="Tracé 385" d="M393.35,229.39h.15a4.11,4.11,0,0,0,.6-.08h-.01c.05,0,.05,0,.08.05h0c.1-.05,0,0,.12,0s.07-.06.11-.05h.05c.05,0,.06,0,0-.05s.06,0,0,0h.28a1.737,1.737,0,0,0,.33-.17h0v.09a4.078,4.078,0,0,1,.59-.11h0v-.06h.05s0-.07.05-.06h.22s.11,0,.15-.07a5.184,5.184,0,0,0-.06-.89h-.05c-.05,0,0,0,.05-.05s-.05,0-.05,0h-.36L395,228h0c-.19.05-.58.11-.77.18h-.21a3.649,3.649,0,0,1-.64.09.2.2,0,0,0-.17.06h0c-.05,0-.38,0-.44.07h-.1a.07.07,0,0,1-.05.08h0a.688.688,0,0,1-.13.07h0a.27.27,0,0,1-.14,0h-.25l-.07-.05h0a2.579,2.579,0,0,0,.18.91h.05a4.2,4.2,0,0,0,.51-.05h.14a.71.71,0,0,1,.44.03Z" fill="#fff"/>
      </g>
      <g id="Groupe_110" data-name="Groupe 110" opacity="0.6">
        <path id="Tracé_386" data-name="Tracé 386" d="M395.38,234.88h.05Z" fill="#fff"/>
        <path id="Tracé_387" data-name="Tracé 387" d="M395.43,234.9v-.01h0Z" fill="#fff"/>
        <path id="Tracé_388" data-name="Tracé 388" d="M398.26,233Z" fill="#fff"/>
        <path id="Tracé_389" data-name="Tracé 389" d="M396.17,234.66h.12a3,3,0,0,0,.43-.11h-.05l.07.05h.08c.08,0,.05-.06.07-.06h0v-.05h.2c0-.05.2-.12.23-.17h0v.08a3.3,3.3,0,0,1,.43-.09v.05h0v-.07h0v-.06a.76.76,0,0,0,.15,0h0s.09,0,.11-.06,0-.84,0-.9h-.1c-.05,0-.07.05-.11,0h.12a5.836,5.836,0,0,0-.6.15h0a3.45,3.45,0,0,0-.62.2.12.12,0,0,0-.08,0h-.07a2.6,2.6,0,0,1-.51.14.153.153,0,0,0-.13.08h0a2.868,2.868,0,0,0-.34.12h-.08a.08.08,0,0,1,0,.09h0l-.09.09h0s-.07.05-.09.07a.35.35,0,0,0-.19.06h-.07a3.38,3.38,0,0,0,.42.83h0a3,3,0,0,0,.36-.12h0l.09-.06h0S396.16,234.66,396.17,234.66Z" fill="#fff"/>
      </g>
      <g id="Groupe_111" data-name="Groupe 111" opacity="0.6">
        <path id="Tracé_390" data-name="Tracé 390" d="M395.91,239.5a.06.06,0,0,0,.07,0,.08.08,0,0,0-.07,0Z" fill="#fff"/>
        <path id="Tracé_391" data-name="Tracé 391" d="M395.98,239.51Z" fill="#fff"/>
        <path id="Tracé_392" data-name="Tracé 392" d="M400,237.39Z" fill="#fff"/>
        <path id="Tracé_393" data-name="Tracé 393" d="M397.07,239.31h.16a4.557,4.557,0,0,0,.62-.13h.07c.1-.06,0,0,.12,0s.07-.07.11-.06h.22l.11-.06h0c0-.05.3-.15.34-.2h0v.09a5,5,0,0,1,.61-.16v.05h0v-.06h.05v-.06l.23-.05h0a.172.172,0,0,0,.15-.09,4.246,4.246,0,0,0-.12-.89h-.05s0,.05-.06,0h0c-.06,0-.08.06-.13.05h-.19l-.75.23h0a8,8,0,0,0-.79.25h-.11l-.1.06a3.2,3.2,0,0,1-.67.14.174.174,0,0,0-.17.08h0l-.46.1h-.11c-.05,0,0,.08-.05.08h0a.791.791,0,0,1-.13.08h0a.6.6,0,0,1-.14,0,.49.49,0,0,0-.26,0h-.08s.09.77.25.9h.1a3.258,3.258,0,0,0,.53-.09h.15S397.06,239.31,397.07,239.31Z" fill="#fff"/>
      </g>
      <g id="Groupe_112" data-name="Groupe 112" opacity="0.6">
        <path id="Tracé_394" data-name="Tracé 394" d="M396.94,243.41h.07C397.08,243.41,397,243.4,396.94,243.41Z" fill="#fff"/>
        <path id="Tracé_395" data-name="Tracé 395" d="M397.01,243.43v-.01h0Z" fill="#fff"/>
        <path id="Tracé_396" data-name="Tracé 396" d="M401.55,241.47Z" fill="#fff"/>
        <path id="Tracé_397" data-name="Tracé 397" d="M398.2,243.27h.18s.58-.07.69-.1-.05,0-.07,0h0a.138.138,0,0,1,.1.05h0c.11-.06,0,0,.13,0s.09-.06.13,0h.05c.05,0,.07,0,.05-.05s.06,0,0,0h.2a.25.25,0,0,0,.12,0h0a1.045,1.045,0,0,0,.38-.19h0v.09a5.318,5.318,0,0,1,.67-.14h.05v-.07h0a.059.059,0,0,1,.06-.06h.24s.14,0,.18-.08a2.7,2.7,0,0,0-.06-.9h-.42a8.267,8.267,0,0,0-.83.19h0a3.626,3.626,0,0,0-.88.21h-.12l-.11.05a5,5,0,0,1-.74.12.231.231,0,0,0-.19.06h0a4.808,4.808,0,0,0-.5.09h-.12c-.06,0,0,.07-.06.08h0a.712.712,0,0,1-.15.07h0a.529.529,0,0,1-.15,0,.741.741,0,0,0-.29,0h-.07s0,.77.2.9h.24a1.677,1.677,0,0,0,.58-.07l.17-.05h0A2.061,2.061,0,0,1,398.2,243.27Z" fill="#fff"/>
      </g>
      <g id="Groupe_113" data-name="Groupe 113" opacity="0.6">
        <path id="Tracé_398" data-name="Tracé 398" d="M398,248.68h.06a.06.06,0,0,0-.06,0Z" fill="#fff"/>
        <path id="Tracé_399" data-name="Tracé 399" d="M398.01,248.71Z" fill="#fff"/>
        <path id="Tracé_400" data-name="Tracé 400" d="M402,247.18Z" fill="#fff"/>
        <path id="Tracé_401" data-name="Tracé 401" d="M399.05,248.66h.75c.05,0,.05,0,.08.06H400c.12,0,.08-.06.11-.05h.32a1.541,1.541,0,0,0,.34-.15h0v.08a5.931,5.931,0,0,1,.59-.07h0v-.07h0s0-.06.05,0h.22s.12,0,.16-.06a6.756,6.756,0,0,0,0-.9h-.36l-.74.11h0a6.885,6.885,0,0,0-.77.13h-.21a3.552,3.552,0,0,1-.65,0c-.05.05-.11,0-.17.05h-.54c-.05,0,0,.07-.06.07h0a.529.529,0,0,1-.13.06h0a.892.892,0,0,1-.14,0,.43.43,0,0,0-.25,0l-.06-.06h0a2.59,2.59,0,0,0,.13.91h0a2.9,2.9,0,0,0,.51,0h.14Z" fill="#fff"/>
      </g>
      <g id="Groupe_114" data-name="Groupe 114" opacity="0.6">
        <path id="Tracé_402" data-name="Tracé 402" d="M398.72,252.46Z" fill="#fff"/>
        <path id="Tracé_403" data-name="Tracé 403" d="M398.77,252.51Z" fill="#fff"/>
        <path id="Tracé_404" data-name="Tracé 404" d="M403.5,253.51Z" fill="#fff"/>
        <path id="Tracé_405" data-name="Tracé 405" d="M399.84,252.87H400s.49.23.59.26,0,0,0-.07,0,0,.06,0,.05,0,0,.1h0c.12,0,0,0,.12.05s.1,0,.12,0h.06v.05h0a.073.073,0,0,0,.11,0h0s.05,0,0,.06h0a.19.19,0,0,0,.12,0h0c.06,0,.32.1.39.09h.05l-.06.06a4,4,0,0,1,.56.34h.06v-.07h.08l.19.14h0a.4.4,0,0,0,.17.07l.62-.65h.08c.08,0,0-.05-.06,0s0,0,0-.05a.08.08,0,0,1-.08,0h0c0-.06-.1,0-.14-.09h0a.079.079,0,0,1-.07-.06h0a.3.3,0,0,1-.07-.08h0c-.12-.09-.64-.37-.78-.44h0a7.993,7.993,0,0,0-.84-.39l-.11-.07h-.13a6.138,6.138,0,0,1-.7-.3h-.2c-.06,0-.42-.15-.5-.16h0c-.07,0,0,0-.1-.06s-.06,0-.09,0h-.16a.38.38,0,0,1-.16,0,.61.61,0,0,0-.28-.08l-.06-.08h0s-.25.72-.16.91h.06c.06,0,0,0,0,.05l.53.17h.15A1,1,0,0,1,399.84,252.87Z" fill="#fff"/>
      </g>
      <g id="Groupe_115" data-name="Groupe 115" opacity="0.6">
        <path id="Tracé_406" data-name="Tracé 406" d="M399.18,256.74a.05.05,0,0,0,.05,0Z" fill="#fff"/>
        <path id="Tracé_407" data-name="Tracé 407" d="M399.23,256.78Z" fill="#fff"/>
        <path id="Tracé_408" data-name="Tracé 408" d="M403.25,256.3Z" fill="#fff"/>
        <path id="Tracé_409" data-name="Tracé 409" d="M400.18,257h0c.05,0,0,.05.06,0s.07,0,.09,0h0a2.441,2.441,0,0,0,.55.11l-.05-.05c-.05-.05,0,0,.05,0s0,0,.06.08h.27c-.01,0,0,0,0,.05h.09a.2.2,0,0,0,.11,0h0s.29,0,.34-.06h0v.08a4.535,4.535,0,0,1,.55.08v.05h0v-.07h0s0-.05.07,0h.36a5.02,5.02,0,0,0,.22-.87h.01c-.05,0,0,0,0-.05s-.05,0-.06,0h-.28l-.7-.07h0c-.18,0-.54-.07-.73-.06H401a2.28,2.28,0,0,1-.59-.11h-.17c-.05,0-.35-.07-.41-.07h-.08c-.08,0-.05.06-.07.06h0a.489.489,0,0,1-.14,0h-.13a.56.56,0,0,0-.23-.06v-.07h0a2.759,2.759,0,0,0-.12.92h.05c.05,0,0,0,0,.05a4.235,4.235,0,0,0,.46.1h.13Z" fill="#fff"/>
      </g>
      <g id="Groupe_116" data-name="Groupe 116" opacity="0.6">
        <path id="Tracé_410" data-name="Tracé 410" d="M401.45,265.11h.06C401.57,265.11,401.47,265.1,401.45,265.11Z" fill="#fff"/>
        <path id="Tracé_411" data-name="Tracé 411" d="M401.51,265.12Z" fill="#fff"/>
        <path id="Tracé_412" data-name="Tracé 412" d="M404,262.54Z" fill="#fff"/>
        <path id="Tracé_413" data-name="Tracé 413" d="M402.28,264.77h.07c.07,0,.05,0,.05-.06h0a2.529,2.529,0,0,0,.44-.21h.03c.06-.07,0,0,.08-.05s0-.08.07-.08h0v-.05c0-.05.05,0,0,0h.06a.16.16,0,0,0,.07-.07h0c0-.05.18-.18.19-.24h0v.08a4.191,4.191,0,0,1,.42-.24h0v-.05h0v-.06l.15-.08h0s.08-.05.09-.1a7.3,7.3,0,0,0-.36-.82h0v-.05c0-.05-.05,0,0,0h0c-.05,0,0,.06-.09.06h-.13l-.51.33h0c-.13.09-.41.24-.54.34h-.08l-.06.06a1.859,1.859,0,0,1-.47.23c0,.06-.09.06-.11.1h0a2.613,2.613,0,0,0-.32.17h-.08a.06.06,0,0,1,0,.08h0a.482.482,0,0,1-.08.1h0s-.08.06-.1.07-.14,0-.18.08h-.07a3.15,3.15,0,0,0,.46.8h0a1.841,1.841,0,0,0,.38-.17h0l.1-.07h0A1.13,1.13,0,0,1,402.28,264.77Z" fill="#fff"/>
      </g>
      <g id="Groupe_117" data-name="Groupe 117" opacity="0.6">
        <path id="Tracé_414" data-name="Tracé 414" d="M402.6,270.44a.09.09,0,0,0,.07,0,.06.06,0,0,0-.07,0Z" fill="#fff"/>
        <path id="Tracé_415" data-name="Tracé 415" d="M402.67,270.45Z" fill="#fff"/>
        <path id="Tracé_416" data-name="Tracé 416" d="M406.29,268Z" fill="#fff"/>
        <path id="Tracé_417" data-name="Tracé 417" d="M403.69,270.15h.07c.07,0,.08,0,.09-.06h0a4.488,4.488,0,0,0,.59-.19h.03c.09-.07,0,0,.11-.05s.07-.08.1-.07h0s.06,0,0-.06.05,0,0,0h0s.08,0,.1-.05h.07a.24.24,0,0,0,.1-.06h0c0-.05.27-.17.3-.23h0v.08a4.409,4.409,0,0,1,.57-.21h0v-.06h0v-.07a1.729,1.729,0,0,0,.21-.07h0a.15.15,0,0,0,.14-.1,4.426,4.426,0,0,0-.22-.87h-.05s0,.05-.06,0h0c-.06,0-.07.06-.12.05h-.17a4.216,4.216,0,0,0-.7.3h0c-.18.08-.55.22-.73.32a.2.2,0,0,0-.11,0h0l-.09.07a3.057,3.057,0,0,1-.63.2c0,.06-.12.05-.16.09h0a2.667,2.667,0,0,0-.42.15h-.1c-.04,0,0,.08,0,.09h0a.892.892,0,0,1-.12.09h0s-.1.05-.13.07a.47.47,0,0,0-.24.07h-.08a2.69,2.69,0,0,0,.34.86h.05a4.13,4.13,0,0,0,.5-.15h0l.13-.07h0A1.09,1.09,0,0,1,403.69,270.15Z" fill="#fff"/>
      </g>
      <g id="Groupe_118" data-name="Groupe 118" opacity="0.6">
        <path id="Tracé_418" data-name="Tracé 418" d="M403.28,274.52Z" fill="#fff"/>
        <path id="Tracé_419" data-name="Tracé 419" d="M403.3,274.57v-.01h0Z" fill="#fff"/>
        <path id="Tracé_420" data-name="Tracé 420" d="M406.45,274.93Z" fill="#fff"/>
        <path id="Tracé_421" data-name="Tracé 421" d="M403.93,275h0v.05c0,.05,0,0,.07,0h0a2.262,2.262,0,0,0,.37.22v-.06h0v.09h.17v.05h0s0,.05.07,0h0v.05h0a.11.11,0,0,0,.08,0h.27l-.06.06a3.533,3.533,0,0,1,.39.19v.05h0v-.07h0s0-.05.06,0l.14.07h.12l.47-.77h.05v-.05h-.09l-.49-.21h0a4.7,4.7,0,0,0-.52-.21l-.05-.05h-.08a2,2,0,0,1-.4-.23h-.12a2.244,2.244,0,0,0-.28-.15h0c-.05,0,0,0-.05-.06a.07.07,0,0,1-.07,0h-.07c-.02,0-.09-.09-.15-.09v-.08h0a3.682,3.682,0,0,0-.4.84h0v.05a2,2,0,0,0,.31.19h.1Z" fill="#fff"/>
      </g>
      <g id="Groupe_119" data-name="Groupe 119" opacity="0.6">
        <path id="Tracé_422" data-name="Tracé 422" d="M404.44,280.86Z" fill="#fff"/>
        <path id="Tracé_423" data-name="Tracé 423" d="M404.44,280.9Z" fill="#fff"/>
        <path id="Tracé_424" data-name="Tracé 424" d="M406.68,282.39Z" fill="#fff"/>
        <path id="Tracé_425" data-name="Tracé 425" d="M404.71,281.46h0v.05h0a1.87,1.87,0,0,0,.17.31v-.05h0v.07h0c.07,0,0,0,.05.06s.07,0,.06,0h.05v.05h0a.1.1,0,0,0,.05,0h0c.05,0,.16.11.21.11h-.08a2,2,0,0,1,.2.3h0l.05-.05h.06a.6.6,0,0,0,.06.11h0s0,.06.09.06l.78-.43h.05a.049.049,0,0,1-.05-.06h0v-.05h0v-.05h0l-.27-.35h0c-.08-.09-.2-.28-.29-.36s0-.05,0-.07h-.05a1.281,1.281,0,0,1-.19-.34c-.05,0-.05-.05-.08-.07h0a1.541,1.541,0,0,0-.14-.22h0v-.06a.1.1,0,0,1-.07,0h0a.36.36,0,0,1-.09,0h0a.064.064,0,0,0-.06-.06c-.06-.01,0-.11-.06-.14v-.06h0a4.559,4.559,0,0,0-.77.51h0a1.429,1.429,0,0,0,.13.28h0a.064.064,0,0,0,.06.06h0S404.71,281.45,404.71,281.46Z" fill="#fff"/>
      </g>
      <g id="Groupe_120" data-name="Groupe 120" opacity="0.6">
        <path id="Tracé_426" data-name="Tracé 426" d="M403.08,285.74v.07a.06.06,0,0,0,0-.07Z" fill="#fff"/>
        <path id="Tracé_427" data-name="Tracé 427" d="M403.07,285.81Z" fill="#fff"/>
        <path id="Tracé_428" data-name="Tracé 428" d="M405.19,289.51Z" fill="#fff"/>
        <path id="Tracé_429" data-name="Tracé 429" d="M403.27,286.82h0v.15h0a3.752,3.752,0,0,0,.13.58v-.06h0v.09h0c.06.1,0,0,0,.12s.07.07.06.1h0v.05c0,.05,0,0,.05,0s0,.05,0,0h0v.09h0v.07h0a.19.19,0,0,0,.05.1h0a1.591,1.591,0,0,0,.19.3h-.09a4,4,0,0,1,.16.57h.12a.4.4,0,0,0,.05.2h0a.179.179,0,0,0,.08.15l.89-.15h0v-.05h0v-.05c0-.05,0,0,.05.05s0-.06,0-.06h0v-.06h0c0-.06-.05-.07,0-.12h0v-.08h0v-.08h0a4.769,4.769,0,0,0-.23-.7h0a7.148,7.148,0,0,0-.25-.74s0-.07,0-.1h0l-.05-.09a2.772,2.772,0,0,1-.14-.62c-.05-.05,0-.12-.08-.16h0a2.473,2.473,0,0,0-.11-.43h0v-.09c0-.04-.07,0-.08-.05h0a.81.81,0,0,1-.07.25h0s0-.11-.05-.13a.52.52,0,0,0-.05-.24l.05-.07h0s-.76.11-.88.26h0v.05a4.216,4.216,0,0,0,.09.49h0v.13h0a1.47,1.47,0,0,1,.11.33Z" fill="#fff"/>
      </g>
      <g id="Groupe_121" data-name="Groupe 121" opacity="0.6">
        <path id="Tracé_430" data-name="Tracé 430" d="M402.49,290.58Z" fill="#fff"/>
        <path id="Tracé_431" data-name="Tracé 431" d="M402.45,290.58Z" fill="#fff"/>
        <path id="Tracé_432" data-name="Tracé 432" d="M402.27,292.58Z" fill="#fff"/>
        <path id="Tracé_433" data-name="Tracé 433" d="M402.14,290.87h0v.05h0a.731.731,0,0,0-.17.18h-.02v.06h0v.18h0l-.06-.06a.939.939,0,0,1-.14.19h.06v.05a.079.079,0,0,1-.06.07h0v.07l.68.58h0v-.05h0s.13-.22.15-.26h0c0-.07.13-.19.16-.27h0v-.05a.47.47,0,0,1,.18-.19v-.08h0s.11-.11.11-.14h.05a.06.06,0,0,1,0-.06h0v-.08h0V291c0-.06.08,0,.08-.07h.06a5.8,5.8,0,0,0-.74-.56h0c-.05,0-.11.09-.15.14h0v.06h0Z" fill="#fff"/>
      </g>
      <g id="Groupe_122" data-name="Groupe 122" opacity="0.6">
        <path id="Tracé_434" data-name="Tracé 434" d="M398.37,292.38h-.05a.07.07,0,0,0,.05,0Z" fill="#fff"/>
        <path id="Tracé_435" data-name="Tracé 435" d="M398.32,292.42Z" fill="#fff"/>
        <path id="Tracé_436" data-name="Tracé 436" d="M398,296.22Z" fill="#fff"/>
        <path id="Tracé_437" data-name="Tracé 437" d="M397.92,293.24h-.06c-.06,0,0,.06,0,.08h0a4.159,4.159,0,0,0-.22.48h.06c.06,0,0,0,0,.05s0,0-.09,0h0v.21h0v.05h-.05s-.05.05,0,.08h-.05a.17.17,0,0,0,0,.1h0v.33h0l-.07-.05a2.257,2.257,0,0,1-.19.49h0v.05h.07s.05,0,0,.07a1.3,1.3,0,0,0-.08.17h0v.15l.8.4h0v.01c0-.05,0,0,.05,0s0,0,0-.06h0v-.11h0v-.07h0v-.06h0a4.96,4.96,0,0,1,.2-.62h0a5.992,5.992,0,0,1,.2-.65.12.12,0,0,0,.06-.08h0v-.09a1.869,1.869,0,0,1,.23-.52c0-.06,0-.1,0-.15h0c0-.05.14-.3.15-.36h0c0-.06,0,0,.06-.07s-.05-.06,0-.07h0v-.13h0v-.12c0-.02.1-.12.1-.2h.08a3.051,3.051,0,0,0-.86-.32h0v.05h0a3,3,0,0,0-.2.4h0a.613.613,0,0,0,0,.13h0S397.93,293.24,397.92,293.24Z" fill="#fff"/>
      </g>
      <g id="Groupe_123" data-name="Groupe 123" opacity="0.6">
        <path id="Tracé_438" data-name="Tracé 438" d="M394,293.6a.07.07,0,0,0-.06,0,.05.05,0,0,0,.06,0Z" fill="#fff"/>
        <path id="Tracé_439" data-name="Tracé 439" d="M393.94,293.64Z" fill="#fff"/>
        <path id="Tracé_440" data-name="Tracé 440" d="M392.23,298.5Z" fill="#fff"/>
        <path id="Tracé_441" data-name="Tracé 441" d="M393.11,294.64h-.08c-.03,0-.06.07,0,.11h0v.05h0v.05h0a5.528,5.528,0,0,0-.43.61h.08c.08,0,0,0,0,.06s-.05,0-.11,0h0c0,.13,0,0-.08.13s0,.12,0,.14h0v.11h-.05s-.07.06-.06.11h0a.049.049,0,0,1-.06.05h0a.24.24,0,0,0-.05.13h0c0,.07-.13.36-.12.43h0v.06s-.07-.07-.06-.07a7.107,7.107,0,0,1-.34.66c-.06.08-.05,0-.05,0v.06h.07v.05h0v.1a2.519,2.519,0,0,0-.12.23h0s-.05.13,0,.2l.77.47h0v-.05h0v.01c0-.06,0,0,.05,0s0-.06,0-.08h0c.05,0,0-.11.05-.15h0a.09.09,0,0,1,.05-.08h0a.087.087,0,0,1,.06-.08h0l.37-.8h0c.09-.2.32-.61.42-.82,0,0,.06-.07.08-.1h0v-.12a3.22,3.22,0,0,1,.44-.63c0-.08.07-.13.09-.19h0c0-.06.28-.35.31-.42h0c0-.07.05,0,.1-.07s0-.08,0-.1h0a1.764,1.764,0,0,1,.06-.17h0a.48.48,0,0,1,.09-.14c.05-.06.16-.12.2-.22h.09s-.52-.56-.74-.56h0v.07h0a4.654,4.654,0,0,0-.42.48h0a1.287,1.287,0,0,0-.09.16h0A2.2,2.2,0,0,1,393.11,294.64Z" fill="#fff"/>
      </g>
      <g id="Groupe_124" data-name="Groupe 124" opacity="0.6">
        <path id="Tracé_442" data-name="Tracé 442" d="M389.2,293.47a.12.12,0,0,0-.08,0,.1.1,0,0,0,.08,0Z" fill="#fff"/>
        <path id="Tracé_443" data-name="Tracé 443" d="M389.12,293.51Z" fill="#fff"/>
        <path id="Tracé_444" data-name="Tracé 444" d="M386.27,298.65Z" fill="#fff"/>
        <path id="Tracé_445" data-name="Tracé 445" d="M388.15,294.58h0c-.05.05-.05,0-.09,0s-.07.08-.06.12h0v.05h0s-.48.52-.55.63.05,0,.08,0,0,0,0,.06-.06.05-.11,0h0c-.07.14,0,0-.1.14s0,.12-.08.14h0v.05c0-.01-.06.06,0,.07s-.07,0-.06,0h0c0,.05-.08.06-.08.11h0s0,.06-.08.05h0a.39.39,0,0,0-.08.14h0c0,.08-.22.37-.22.45h0v-.02s-.44.57-.52.64h0v.07h.07v.1l-.19.23v-.06h0c0-.05-.1.13-.11.2l.6.67h0v.08c0,.03.06,0,.05-.06s0,0,.05,0,0-.07.05-.08h0c.07,0,0-.11.11-.15h0s0-.05.08-.08h0s0-.06.09-.08h0c.12-.13.53-.68.63-.82h0c.16-.21.51-.63.66-.86,0,0,.08-.07.11-.1h0l.07-.12a6.71,6.71,0,0,1,.59-.68c0-.08.1-.13.13-.21h0c0-.07.34-.4.39-.47h0c0-.07.06,0,.11-.08s0-.09,0-.11h0a1.731,1.731,0,0,1,.08-.18h0s.09-.12.11-.16a1.16,1.16,0,0,0,.24-.25h.09s-.51-.58-.74-.57h0a.07.07,0,0,1,0,.06h-.06c-.06,0-.33.33-.48.51h0l-.12.16h0A1.54,1.54,0,0,1,388.15,294.58Z" fill="#fff"/>
      </g>
      <g id="Groupe_125" data-name="Groupe 125" opacity="0.6">
        <path id="Tracé_446" data-name="Tracé 446" d="M383.63,293.9h0Z" fill="#fff"/>
        <path id="Tracé_447" data-name="Tracé 447" d="M383.58,293.91Z" fill="#fff"/>
        <path id="Tracé_448" data-name="Tracé 448" d="M382.15,297Z" fill="#fff"/>
        <path id="Tracé_449" data-name="Tracé 449" d="M383,294.45h-.06c-.06,0,0,0,0,.07h0a3.307,3.307,0,0,0-.33.32h-.03c0,.09,0,0-.06.08s0,.08,0,.08h0v.05c0,.05-.05,0,0,0h0s-.05,0,0,.06h-.06a.18.18,0,0,0-.05.08h0c0,.06-.11.22-.1.28h0s-.05-.08,0-.07a3.474,3.474,0,0,1-.32.34h0v.05h.06v.07l-.11.11h0a.209.209,0,0,0-.06.12,5.363,5.363,0,0,0,.61.66h0v.06c0,.06.05,0,0,0h0v-.05h0c.05,0,0-.07.06-.08h.12c.07-.07.31-.37.37-.45h0a4.54,4.54,0,0,0,.39-.48.1.1,0,0,0,.07,0h0v-.08a2,2,0,0,1,.36-.35c0-.05.06-.07.07-.12h0a2.7,2.7,0,0,0,.24-.24h0c0-.05,0,0,.07,0a.06.06,0,0,1,0-.08h0a.76.76,0,0,1,0-.11h0a.22.22,0,0,1,.07-.09s.12-.06.14-.13h.08s-.51-.58-.69-.62h0a2.544,2.544,0,0,0-.3.26h0a.7.7,0,0,1-.06.09h0S383,294.46,383,294.45Z" fill="#fff"/>
      </g>
      <g id="Groupe_126" data-name="Groupe 126" opacity="0.6">
        <path id="Tracé_450" data-name="Tracé 450" d="M380.26,293.6h-.05S380.25,293.62,380.26,293.6Z" fill="#fff"/>
        <path id="Tracé_451" data-name="Tracé 451" d="M380.21,293.62Z" fill="#fff"/>
        <path id="Tracé_452" data-name="Tracé 452" d="M379.12,296.67Z" fill="#fff"/>
        <path id="Tracé_453" data-name="Tracé 453" d="M379.68,294.16h-.06c-.06,0,0,0,0,.07h0a3.076,3.076,0,0,0-.3.33h-.03c0,.08,0,0-.05.07s0,.08,0,.09h-.05s-.05,0,0,.07h-.05a.1.1,0,0,0,0,.08h0c0,.05-.09.21-.08.27h0l-.05-.06a3.1,3.1,0,0,1-.27.34h0v.05h.06v.06l-.1.12h0s-.05.07,0,.12l.65.62h.05c.05,0,0-.05,0-.05h0v-.08h.1c.06-.07.26-.37.31-.45h0c.08-.12.26-.34.33-.47a.18.18,0,0,0,.07-.05h0v-.07a1.8,1.8,0,0,1,.32-.35c0-.06.05-.08.06-.12h0c0-.05.19-.21.21-.25h0c0-.05,0,0,.07,0v-.07h0v-.11h0s0-.07.05-.09a.209.209,0,0,0,.13-.13H381a3.561,3.561,0,0,0-.73-.57h0a1.658,1.658,0,0,0-.27.26h0l-.06.09h0Z" fill="#fff"/>
      </g>
      <g id="Groupe_127" data-name="Groupe 127" opacity="0.6">
        <path id="Tracé_454" data-name="Tracé 454" d="M376.39,293.35Z" fill="#fff"/>
        <path id="Tracé_455" data-name="Tracé 455" d="M376.35,293.4h0v0Z" fill="#fff"/>
        <path id="Tracé_456" data-name="Tracé 456" d="M375.84,297.5Z" fill="#fff"/>
        <path id="Tracé_457" data-name="Tracé 457" d="M376,294.3h-.05c-.05,0,0,.07,0,.09h0c0,.07-.19.43-.21.51s0,0,.06,0,0,0,0,.05,0,0-.09,0h0v.21h0v.05h0c0,.05-.05.06,0,.09h-.05a.12.12,0,0,0,0,.1h0v.34h0l-.07-.05a3.715,3.715,0,0,1-.24.49h-.05v.06h.07v.08a.527.527,0,0,1-.1.17h0s-.05.1,0,.15l.73.53h0v.01c0-.06,0,0,.05,0s0-.05,0-.06h0s0-.09.05-.12h0a.079.079,0,0,1,.05-.07h0a.072.072,0,0,1,.06-.07h0c.07-.11.26-.57.31-.68h0a5.26,5.26,0,0,0,.28-.73.087.087,0,0,1,.06-.08h0v-.11a4,4,0,0,1,.24-.6v-.17h0c0-.06.13-.36.14-.42h0c0-.06,0,0,.05-.08a.06.06,0,0,1,0-.08h0v-.15h0v-.14a.46.46,0,0,0,.08-.24h.07a2.649,2.649,0,0,0-.91-.19h0v.05h0a3.885,3.885,0,0,0-.16.44h0v.14h0Z" fill="#fff"/>
      </g>
      <path id="Tracé_458" data-name="Tracé 458" d="M374.44,287a.06.06,0,0,0,0,.05.06.06,0,0,0,0-.05Z" fill="#fbfbfb"/>
      <path id="Tracé_459" data-name="Tracé 459" d="M374.46,287.04Z" fill="#fbfbfb"/>
      <path id="Tracé_460" data-name="Tracé 460" d="M377,289Z" fill="#fbfbfb"/>
      <path id="Tracé_461" data-name="Tracé 461" d="M375,287.45h0v.05c0,.05,0,0,.06,0h0s.19.25.23.29,0,0,0-.05h0v.08h0c.07,0,0,0,.05.06s.07,0,.07,0h0v.06h0v.05h0a1.37,1.37,0,0,0,.2.16h-.08a1.628,1.628,0,0,1,.13.37h.08a.57.57,0,0,0,0,.13h0v.09h.9v0h0v-.06h0v-.11h0v-.07h0v-.08h0a3.224,3.224,0,0,0-.24-.61h0a2.718,2.718,0,0,0-.37-.58v-.09h0l-.07-.05a3.754,3.754,0,0,1-.35-.44.158.158,0,0,0-.13-.08h0a3.612,3.612,0,0,0-.3-.25h0c-.06,0,0,0-.05-.08a.07.07,0,0,1-.09,0h-.13a.28.28,0,0,1-.11-.05c-.05,0-.11-.11-.18-.12V286h0a3.77,3.77,0,0,0-.38.84h0s.16.14.25.2h.08S375,287.44,375,287.45Z" fill="#fbfbfb"/>
      <path id="Tracé_462" data-name="Tracé 462" d="M378.09,284.73a.08.08,0,0,0,0,.07.08.08,0,0,0,0-.07Z" fill="#fbfbfb"/>
      <path id="Tracé_463" data-name="Tracé 463" d="M378.09,284.8Z" fill="#fbfbfb"/>
      <path id="Tracé_464" data-name="Tracé 464" d="M380.7,287.9Z" fill="#fbfbfb"/>
      <path id="Tracé_465" data-name="Tracé 465" d="M378.43,285.71h0v.07c0,.07,0,.06.06.07h0s.16.44.21.52,0,0,0-.07h0v.09h0c.07.08,0,0,.06.1s.07.05.07.08h.05c.05,0,0,.05,0,0h0s0,.07.05.08h0a.06.06,0,0,1,0,.07h0a.27.27,0,0,0,.07.08h0c.05,0,.18.23.23.25h-.08a4.665,4.665,0,0,1,.23.51h.13s.06.13.08.19h0a.124.124,0,0,0,.1.12l.85-.29h0v-.05h.05c.05,0,0-.05,0-.05h0s-.05,0,0-.05h0c0-.06-.06-.05-.06-.11h0v-.15h0a3.318,3.318,0,0,0-.32-.62h0c-.09-.16-.24-.49-.35-.65s0-.07,0-.1h0l-.07-.08a2.752,2.752,0,0,1-.23-.56c-.05,0-.05-.1-.09-.13h0a3.548,3.548,0,0,0-.17-.38h0v-.09a.07.07,0,0,1-.09,0h0a.932.932,0,0,1-.1-.1h0s-.05-.09-.06-.11a.511.511,0,0,0-.09-.22v-.08h0s-.73.24-.83.41h0a4.7,4.7,0,0,0,.17.44h0a1.251,1.251,0,0,0,.08.12h0Z" fill="#fbfbfb"/>
      <path id="Tracé_466" data-name="Tracé 466" d="M381,284v0Z" fill="#fbfbfb"/>
      <path id="Tracé_467" data-name="Tracé 467" d="M381,284.06Z" fill="#fbfbfb"/>
      <path id="Tracé_468" data-name="Tracé 468" d="M383.88,287.1Z" fill="#fbfbfb"/>
      <path id="Tracé_469" data-name="Tracé 469" d="M381.42,285h0v.07c0,.07,0,.07.06.07h0a3.6,3.6,0,0,0,.26.52s0,0,0-.06h0v.1h0c.08.08,0,0,.06.1s.08.05.08.08v.05c0,.05,0,.05.05,0s0,.05,0,0h0s0,.07.05.08h0v.07h0a.19.19,0,0,0,.07.08h0c.06,0,.21.23.27.25h-.08c0,.07.26.43.28.5h.13a1.512,1.512,0,0,0,.09.18h0s.06.1.11.12l.83-.35h.05c.05,0,0-.05,0,0v-.05h0c0-.05-.07-.05-.07-.1h0v-.08h0v-.09h0a3.012,3.012,0,0,0-.37-.61h0c-.1-.16-.28-.49-.4-.64a.2.2,0,0,0,0-.11h0l-.07-.07a3.657,3.657,0,0,1-.28-.56c-.05,0-.06-.1-.11-.14h0a2.9,2.9,0,0,0-.2-.38h0v-.09a.08.08,0,0,1-.09,0h0L382,284h0s-.06-.09-.08-.11a.43.43,0,0,0-.1-.22v-.08h0s-.71.29-.8.47h0v.05a2.572,2.572,0,0,0,.2.45h0a.939.939,0,0,1,.09.12h0a.8.8,0,0,1,.11.32Z" fill="#fbfbfb"/>
      <path id="Tracé_470" data-name="Tracé 470" d="M385,282.42v.07a.08.08,0,0,0,0-.07Z" fill="#fbfbfb"/>
      <path id="Tracé_471" data-name="Tracé 471" d="M384.99,282.49Z" fill="#fbfbfb"/>
      <path id="Tracé_472" data-name="Tracé 472" d="M387.71,286.09Z" fill="#fbfbfb"/>
      <path id="Tracé_473" data-name="Tracé 473" d="M385.53,283.36h0v.07c0,.07,0,.07.07.06h0l.25.54v-.07h0v.1h0c.08.08,0,0,.06.1s.07.06.07.09v.05c0,.05,0,0,.05,0s0,.06,0,0h0v.09h0v.07h0a.241.241,0,0,0,.06.1h0c.05,0,.16.26.22.29h-.08a2.937,2.937,0,0,1,.16.58h.07a1.522,1.522,0,0,0,0,.22h0s0,.11.07.15h.9v-.05h0v-.05h0v-.07h0c0-.06-.05-.09,0-.14h0v-.09h0v-.1h0a8.292,8.292,0,0,0-.24-.81h0a4.889,4.889,0,0,0-.34-.82.349.349,0,0,0,0-.11h0l-.08-.09a3.974,3.974,0,0,1-.31-.66.241.241,0,0,0-.12-.15h0c-.05-.05-.21-.37-.27-.43h0v-.11c0-.05-.08,0-.1,0h0l-.13-.1h0c-.05,0-.09-.09-.11-.12a.64.64,0,0,0-.16-.23v-.08h0s-.64.43-.69.62h.05v.05a2.256,2.256,0,0,0,.27.43h0l.09.11h0A1,1,0,0,1,385.53,283.36Z" fill="#fbfbfb"/>
      <path id="Tracé_474" data-name="Tracé 474" d="M389.62,282.22v.06C389.62,282.34,389.63,282.24,389.62,282.22Z" fill="#fbfbfb"/>
      <path id="Tracé_475" data-name="Tracé 475" d="M389.62,282.28Z" fill="#fbfbfb"/>
      <path id="Tracé_476" data-name="Tracé 476" d="M392.23,285.73Z" fill="#fbfbfb"/>
      <path id="Tracé_477" data-name="Tracé 477" d="M390.06,283.19h0v.07c0,.07,0,.07.07.07h0a3.066,3.066,0,0,0,.22.54c.04.08,0,0,0-.07h0v.09h0c.07.09,0,0,.05.11s.08.05.07.09h0v.09h0v.07h0a.2.2,0,0,0,.06.09h0s.16.26.22.28h-.09a3.917,3.917,0,0,1,.18.55h.06s.07,0,.07.05a1.469,1.469,0,0,0,.05.2h0s0,.11.08.14l.89-.12h0v-.05h0v-.06h0c0-.06-.06-.08,0-.13h0v-.09h0v-.09h0a4.412,4.412,0,0,0-.27-.74h0a5.587,5.587,0,0,0-.34-.75v-.11h0l-.07-.09a5.459,5.459,0,0,1-.26-.62c-.05,0-.06-.11-.11-.15h0a4,4,0,0,0-.21-.41h0c-.05,0,0,0,0-.1s-.08,0-.09,0h0a.9.9,0,0,1-.12-.1h0a.2.2,0,0,1-.09-.12.64.64,0,0,0-.12-.23v-.08h0s-.69.33-.77.51h0v.05a1.945,1.945,0,0,0,.22.44h0l.08.12h0a1.16,1.16,0,0,1,.22.55Z" fill="#fbfbfb"/>
      <path id="Tracé_478" data-name="Tracé 478" d="M393.56,281.78v0Z" fill="#fbfbfb"/>
      <path id="Tracé_479" data-name="Tracé 479" d="M393.56,281.83Z" fill="#fbfbfb"/>
      <path id="Tracé_480" data-name="Tracé 480" d="M396,284.67Z" fill="#fbfbfb"/>
      <path id="Tracé_481" data-name="Tracé 481" d="M394,282.6h0v.06c0,.06,0,.06.06.06h0a3.614,3.614,0,0,0,.2.45h0v.09h0c.07.06,0,0,0,.08s.07.05.07.08h0s0,.05.05,0h0v.08h0v.06h0a.17.17,0,0,0,.06.08h0c.05,0,.15.21.21.23h-.08a4.343,4.343,0,0,1,.16.47h.12v.17h0a.137.137,0,0,0,.07.12l.89-.15h0v-.05h0v-.05h0c0-.05-.05-.06,0-.11h0v-.08h0v-.08h0a4.125,4.125,0,0,0-.25-.63h0a5.309,5.309,0,0,0-.3-.64.16.16,0,0,0,0-.1h0l-.07-.07a4.132,4.132,0,0,1-.24-.53c-.05,0-.06-.1-.1-.13h0s-.15-.3-.19-.35h0v-.09c0-.09-.07,0-.08,0h0a.482.482,0,0,1-.1-.08h0a.24.24,0,0,1-.08-.1.233.233,0,0,0-.11-.2v-.07h0s-.67.37-.75.54h0v.05a3.243,3.243,0,0,0,.19.37h0l.08.09S394,282.59,394,282.6Z" fill="#fbfbfb"/>
      <path id="Tracé_482" data-name="Tracé 482" d="M395.33,277v.06C395.33,277.12,395.35,277.05,395.33,277Z" fill="#fbfbfb"/>
      <path id="Tracé_483" data-name="Tracé 483" d="M395.35,277.1Z" fill="#fbfbfb"/>
      <path id="Tracé_484" data-name="Tracé 484" d="M398.68,278.32Z" fill="#fbfbfb"/>
      <path id="Tracé_485" data-name="Tracé 485" d="M396,277.67h0v.06c0,.06,0,0,.07,0h0a3.876,3.876,0,0,0,.37.32s0,0,0-.07h0v.09h0c.08,0,0,0,.08.05s.08,0,.09,0h.05s0,.05.07,0h0v.06h.08c.06,0,.24.1.3.09h0l-.06.05a1.669,1.669,0,0,1,.38.29h.05v-.06h.08a.69.69,0,0,0,.13.11h0a.341.341,0,0,0,.13.05l.61-.66h.05V278c0-.05,0,0-.05,0h0c0-.05-.07,0-.09-.06h0v-.05h0l-.05-.06h0a5.358,5.358,0,0,0-.49-.34h0c-.13-.08-.38-.28-.52-.35s0-.05-.05-.07h-.09a2.119,2.119,0,0,1-.39-.34c-.06,0-.09,0-.13-.06h0a2.757,2.757,0,0,0-.28-.22h0v-.07c0-.07-.06,0-.08,0h-.12s-.08,0-.1-.05a.26.26,0,0,0-.15-.14v-.08h0a3.359,3.359,0,0,0-.55.74h0a4.12,4.12,0,0,0,.3.29h0a.356.356,0,0,0,.1.06h0S396,277.66,396,277.67Z" fill="#fbfbfb"/>
      <path id="Tracé_486" data-name="Tracé 486" d="M394.57,274Z" fill="#fbfbfb"/>
      <path id="Tracé_487" data-name="Tracé 487" d="M394.61,273.99Z" fill="#fbfbfb"/>
      <path id="Tracé_488" data-name="Tracé 488" d="M397.72,272.91Z" fill="#fbfbfb"/>
      <path id="Tracé_489" data-name="Tracé 489" d="M395.39,274.06h0s0,.05.05,0,.06,0,.07,0h0a3.4,3.4,0,0,0,.45,0v-.05h0l.05.07h.09c.09,0,.06-.05.08,0h.21a.9.9,0,0,0,.27-.11h0v.08a3.37,3.37,0,0,1,.45,0h0v-.07h0s0-.07.05-.05h.28a7.847,7.847,0,0,0,.07-.89h-.78a5.639,5.639,0,0,0-.58,0h-.16a1.54,1.54,0,0,1-.48,0h-.53a.06.06,0,0,1-.05.06h-.39v-.07h0a3.292,3.292,0,0,0,0,.93h0a2.452,2.452,0,0,0,.38,0h.11Z" fill="#fbfbfb"/>
      <path id="Tracé_490" data-name="Tracé 490" d="M391.81,270.67h.06a.07.07,0,0,0-.06,0Z" fill="#fbfbfb"/>
      <path id="Tracé_491" data-name="Tracé 491" d="M391.87,270.69Z" fill="#fbfbfb"/>
      <path id="Tracé_492" data-name="Tracé 492" d="M394.37,268.46Z" fill="#fbfbfb"/>
      <path id="Tracé_493" data-name="Tracé 493" d="M392.71,270.53h.12a2,2,0,0,0,.47-.15h.03c.07-.06,0,0,.09,0s0-.07.07-.06h0s.05,0,0-.05.05,0,0,0h.13a.1.1,0,0,0,.08-.06h0c0-.05.19-.17.2-.23h0v.08a3.669,3.669,0,0,1,.42-.24h0v-.05h0v-.07l.15-.08h0s.08-.06.09-.11-.41-.73-.43-.79h0c-.05,0,0,.07-.07.07h-.12l-.45.29h0c-.12.07-.37.2-.49.28s-.06,0-.08,0h0l-.06.05a1.33,1.33,0,0,1-.45.15c0,.05-.08,0-.11.07h0s-.27.07-.31.09h-.08a.07.07,0,0,1,0,.08h0a.59.59,0,0,1-.08.08h-.27l-.06-.05h0a3,3,0,0,0,.22.9h0a2,2,0,0,0,.41-.07h0a.539.539,0,0,1,.11-.05h0A1.31,1.31,0,0,1,392.71,270.53Z" fill="#fbfbfb"/>
      <path id="Tracé_494" data-name="Tracé 494" d="M391.11,267.42h.07a.06.06,0,0,0-.07,0Z" fill="#fbfbfb"/>
      <path id="Tracé_495" data-name="Tracé 495" d="M391.18,267.43Z" fill="#fbfbfb"/>
      <path id="Tracé_496" data-name="Tracé 496" d="M394.15,264.31Z" fill="#fbfbfb"/>
      <path id="Tracé_497" data-name="Tracé 497" d="M392.22,267.05h.07c.07,0,.08,0,.08-.07h0a3.457,3.457,0,0,0,.57-.3h.03c.08-.08,0,0,.11-.07s.05-.09.08-.09h.05c.05,0,.05,0,0-.05s.06,0,0,0h0a.081.081,0,0,0,.08-.07h.07a.381.381,0,0,0,.09-.09h0c0-.06.23-.24.24-.31h0v.08l.49-.4h0v-.06h-.06v-.08l.17-.15h0a.416.416,0,0,0,.1-.15,5.2,5.2,0,0,0-.55-.71h0v-.06c0-.06-.05,0,0,0h-.05a.091.091,0,0,1-.08.09h-.15c-.09.07-.43.4-.53.47h0c-.14.13-.44.34-.59.47a.29.29,0,0,0-.1,0h0l-.08.07a2.239,2.239,0,0,1-.55.29c0,.06-.1.06-.14.11h0s-.33.14-.38.17h-.1c-.04,0,0,.07,0,.08h0a.551.551,0,0,1-.11.1h0a.873.873,0,0,0-.12.07.44.44,0,0,0-.24.07h-.07s.17.75.34.86h.05a3.161,3.161,0,0,0,.52-.17h0a.906.906,0,0,1,.13-.08h0Z" fill="#fbfbfb"/>
      <path id="Tracé_498" data-name="Tracé 498" d="M390.36,262.72a.07.07,0,0,0,.06,0S390.37,262.7,390.36,262.72Z" fill="#fbfbfb"/>
      <path id="Tracé_499" data-name="Tracé 499" d="M390.42,262.71Z" fill="#fbfbfb"/>
      <path id="Tracé_500" data-name="Tracé 500" d="M392.75,259.65Z" fill="#fbfbfb"/>
      <path id="Tracé_501" data-name="Tracé 501" d="M391.2,262.22h.07c.07,0,.06,0,.05-.07h0a4.275,4.275,0,0,0,.44-.3h.04c.06-.08,0,0,.08-.07s0-.08.07-.09h0v-.06c0-.06.05,0,0,0h0a.059.059,0,0,0,.06-.06h.07l.07-.08h0c0-.05.18-.21.18-.27h0v.08a3.112,3.112,0,0,1,.42-.32h0l-.05-.05h0v-.07l.15-.11h0s.08-.06.09-.11a7.936,7.936,0,0,0-.46-.78h0v.05h0c-.05,0,0,.07-.08.07h-.15c-.09.06-.42.35-.51.41h0a5.5,5.5,0,0,0-.53.45h-.09l-.06.08a2.059,2.059,0,0,1-.47.32c0,.06-.08.07-.11.12h0a2.961,2.961,0,0,0-.32.23h0c0,.05,0,0-.08,0a.09.09,0,0,1,0,.09h0a.478.478,0,0,1-.08.11h0a.816.816,0,0,1-.09.08.474.474,0,0,0-.19.12h-.07s.39.66.57.73h.05a3,3,0,0,0,.38-.24h0l.1-.09h0A1.3,1.3,0,0,1,391.2,262.22Z" fill="#fbfbfb"/>
      <path id="Tracé_502" data-name="Tracé 502" d="M389.85,257.87h.06C389.97,257.87,389.87,257.86,389.85,257.87Z" fill="#fbfbfb"/>
      <path id="Tracé_503" data-name="Tracé 503" d="M389.91,257.88Z" fill="#fbfbfb"/>
      <path id="Tracé_504" data-name="Tracé 504" d="M392.15,255.19Z" fill="#fbfbfb"/>
      <path id="Tracé_505" data-name="Tracé 505" d="M390.65,257.49h.06c.06,0,.06,0,.05-.06h0a3.3,3.3,0,0,0,.41-.23h.02c.06-.08,0,0,.08-.06s0-.08.06-.08h0v-.05c0-.05.05,0,0,0h0s.07,0,.07-.06h.06a.16.16,0,0,0,.07-.07h0c0-.05.17-.19.18-.25h0v.08a3.42,3.42,0,0,1,.4-.26h0l-.05-.06h0v-.07l.15-.08h0a.275.275,0,0,0,.08-.11,6.594,6.594,0,0,0-.41-.79h0v-.05c0-.05-.05,0,0,0h0a.072.072,0,0,1-.08.07h-.13c-.09,0-.4.29-.48.34h0a4.3,4.3,0,0,0-.5.37h-.09l-.05.07a2.281,2.281,0,0,1-.45.26.451.451,0,0,0-.1.1h0a2.921,2.921,0,0,0-.31.18h0c0,.05,0,0-.08,0a.06.06,0,0,1,0,.08h0a.3.3,0,0,1-.07.1h0a.592.592,0,0,0-.08.08c-.01.02-.14,0-.18.09h-.07a3.07,3.07,0,0,0,.51.78h0a1.522,1.522,0,0,0,.36-.18h0l.09-.07h0S390.64,257.49,390.65,257.49Z" fill="#fbfbfb"/>
      <path id="Tracé_506" data-name="Tracé 506" d="M389.35,254.24h.06S389.36,254.23,389.35,254.24Z" fill="#fbfbfb"/>
      <path id="Tracé_507" data-name="Tracé 507" d="M389.41,254.24Z" fill="#fbfbfb"/>
      <path id="Tracé_508" data-name="Tracé 508" d="M391.57,251.31Z" fill="#fbfbfb"/>
      <path id="Tracé_509" data-name="Tracé 509" d="M390.24,253.84h.06c.06,0,.07,0,.06-.07h0a2.109,2.109,0,0,0,.45-.28h.03c.05-.08,0,0,.08-.07s0-.08.06-.08h0v-.05h0a.062.062,0,0,0,.06-.07h.06a.21.21,0,0,0,.06-.08h0a1.139,1.139,0,0,0,.17-.28h0s.05.08,0,.08a4.138,4.138,0,0,1,.38-.35h-.06v-.07l.14-.12h0a.243.243,0,0,0,.07-.13l-.58-.68h0v-.05c0-.05-.05,0,0,0h-.05c-.05,0,0,.07-.07.08h-.12l-.42.43h0c-.11.11-.36.3-.47.43s-.05,0-.08,0h0l-.06.07a2,2,0,0,1-.44.28.451.451,0,0,0-.1.1h0a2.919,2.919,0,0,0-.31.18h-.08a.09.09,0,0,1,0,.09h0a.46.46,0,0,1-.07.1h0a.1.1,0,0,0-.09.07.37.37,0,0,0-.19.07h-.07s.28.71.45.81h0a2.129,2.129,0,0,0,.41-.18h0l.1-.08h0S390.23,253.84,390.24,253.84Z" fill="#fbfbfb"/>
      <path id="Tracé_510" data-name="Tracé 510" d="M389.59,250.94Z" fill="#fbfbfb"/>
      <path id="Tracé_511" data-name="Tracé 511" d="M389.62,250.96Z" fill="#fbfbfb"/>
      <path id="Tracé_512" data-name="Tracé 512" d="M390.88,249.35Z" fill="#fbfbfb"/>
      <path id="Tracé_513" data-name="Tracé 513" d="M390.05,250.88h0a1,1,0,0,0,.24-.07h.05s.1-.11.1-.16h0v.08a1.569,1.569,0,0,1,.23-.09v.05h0a.334.334,0,0,1,0-.06h0v-.06h.08v-.07c0-.07-.25-.8-.27-.85h-.05l-.28.14h0a2,2,0,0,0-.29.15h-.05a.59.59,0,0,1-.26.07h-.06s-.15,0-.17.06h-.05c-.05,0,0,.06,0,.07h0v.07h-.16v-.05h0a6.189,6.189,0,0,0,.32.87h0a.78.78,0,0,0,.21,0h.05S390.05,250.87,390.05,250.88Z" fill="#fbfbfb"/>
      <path id="Tracé_514" data-name="Tracé 514" d="M379.94,227h0Z" fill="#fbfbfb"/>
      <path id="Tracé_515" data-name="Tracé 515" d="M379.99,227.05Z" fill="#fbfbfb"/>
      <path id="Tracé_516" data-name="Tracé 516" d="M382.47,225Z" fill="#fbfbfb"/>
      <path id="Tracé_517" data-name="Tracé 517" d="M380.73,226.86h0s.06,0,.06-.05h0a2.25,2.25,0,0,0,.42-.13h.03c.06-.06,0,0,.08,0s0-.06.06-.06h.13a.12.12,0,0,0,.07-.05h0s.19-.13.2-.19h0v.08a3.381,3.381,0,0,1,.41-.15h0v-.06h0v-.06h.15a.106.106,0,0,0,.1-.08,6.219,6.219,0,0,0-.25-.87h0v-.05h-.22l-.49.22h0c-.12.06-.39.16-.52.24H381l-.06.05a1.47,1.47,0,0,1-.45.14c0,.05-.08,0-.11.07h0a2.084,2.084,0,0,0-.3.1H380a.07.07,0,0,1,0,.08h0a.572.572,0,0,1-.08.08h-.1a.23.23,0,0,0-.17,0h-.06a3.768,3.768,0,0,0,.33.87h0a1.36,1.36,0,0,0,.36-.09h0l.1-.05h0S380.72,226.85,380.73,226.86Z" fill="#fbfbfb"/>
      <path id="Tracé_518" data-name="Tracé 518" d="M378.46,225h.05Z" fill="#fbfbfb"/>
      <path id="Tracé_519" data-name="Tracé 519" d="M378.51,224.95Z" fill="#fbfbfb"/>
      <path id="Tracé_520" data-name="Tracé 520" d="M379.64,222.44Z" fill="#fbfbfb"/>
      <path id="Tracé_521" data-name="Tracé 521" d="M379,224.58h.06c.06,0,0,0,0-.06h0a2,2,0,0,0,.28-.23h.08c0-.06,0,0,.05-.05s0-.07,0-.07h.05v-.06h0c0-.05.09-.17.08-.23h0s.05.07,0,.07a3,3,0,0,1,.26-.25h-.06v-.07a.39.39,0,0,0,.1-.08h0s.05,0,0-.09-.52-.66-.56-.7h0v-.05h0s0,.07-.05.07h-.05c-.06,0-.25.27-.31.33h0a3.648,3.648,0,0,0-.31.36h-.07v.06a1,1,0,0,1-.3.25.356.356,0,0,0-.06.1h0a1.454,1.454,0,0,0-.21.18h-.06a.09.09,0,0,1,0,.08h0v.09h0l-.06.07c-.06.07-.1,0-.12.09h-.07a4.191,4.191,0,0,0,.64.67h0a1.6,1.6,0,0,0,.25-.18h0l.05-.07h0S379,224.57,379,224.58Z" fill="#fbfbfb"/>
      <path id="Tracé_522" data-name="Tracé 522" d="M330.22,249.09Z" fill="#fbfbfb"/>
      <path id="Tracé_523" data-name="Tracé 523" d="M330.26,249.12Z" fill="#fbfbfb"/>
      <path id="Tracé_524" data-name="Tracé 524" d="M332.76,247.7Z" fill="#fbfbfb"/>
      <path id="Tracé_525" data-name="Tracé 525" d="M331,249.22h.07a2.059,2.059,0,0,0,.43,0h0l.06.06h0c.07-.05,0,0,.08,0s.05-.06.08,0h.15s.2-.12.22-.17h0v.08a2.417,2.417,0,0,1,.4-.12c.05,0,0,.05,0,.05h0v-.06h0V249h.15a.1.1,0,0,0,.09-.08,5.645,5.645,0,0,0-.28-.85h0v-.05h0s0,.06-.07,0h-.05l-.4.16h0a1.472,1.472,0,0,0-.44.13.09.09,0,0,0-.07,0h-.06a1,1,0,0,1-.38,0h-.36a.06.06,0,0,1,0,.06h0l-.09.05h-.08c-.01,0-.1-.06-.15,0v-.06h0a3.739,3.739,0,0,0-.09.92h0a2.082,2.082,0,0,0,.36.06h.1Z" fill="#fbfbfb"/>
      <path id="Tracé_526" data-name="Tracé 526" d="M330.08,245Z" fill="#fbfbfb"/>
      <path id="Tracé_527" data-name="Tracé 527" d="M330.11,245.04Z" fill="#fbfbfb"/>
      <path id="Tracé_528" data-name="Tracé 528" d="M332.39,244Z" fill="#fbfbfb"/>
      <path id="Tracé_529" data-name="Tracé 529" d="M330.68,245.11h0a1.19,1.19,0,0,0,.33,0h0v.07h.07c.07,0,.05-.05.06,0h.12s.17-.07.2-.12h0v.08a1.818,1.818,0,0,1,.33,0h0v-.07h0v-.05h.2c.02,0,.06-.83.06-.89h-.53a3,3,0,0,0-.42,0,.07.07,0,0,0-.06,0h-.06a1,1,0,0,1-.35,0h-.4a.06.06,0,0,1,0,.06h-.29v-.06h0a4.873,4.873,0,0,0,0,.93h0a1.451,1.451,0,0,0,.28,0h.08Z" fill="#fbfbfb"/>
      <path id="Tracé_530" data-name="Tracé 530" d="M330.86,240.69Z" fill="#fbfbfb"/>
      <path id="Tracé_531" data-name="Tracé 531" d="M330.88,240.72Z" fill="#fbfbfb"/>
      <path id="Tracé_532" data-name="Tracé 532" d="M332.82,240.05Z" fill="#fbfbfb"/>
      <path id="Tracé_533" data-name="Tracé 533" d="M331.29,240.89h.05a.75.75,0,0,0,.24.08s0,0,0-.05h0V241h.15s.14,0,.16-.08h0V241c0-.01.21,0,.24.05h0v-.07h.15c.02,0,.22-.81.24-.87h-.75a.57.57,0,0,1-.26-.08h-.08s-.15-.06-.18,0h0a.06.06,0,0,1,0,.06h-.12c-.01,0-.06-.06-.1,0v-.06h0a6.359,6.359,0,0,0-.19.91h0a.6.6,0,0,0,.2.08h.06A2.143,2.143,0,0,1,331.29,240.89Z" fill="#fbfbfb"/>
      <path id="Tracé_534" data-name="Tracé 534" d="M332.08,237.42Z" fill="#fbfbfb"/>
      <path id="Tracé_535" data-name="Tracé 535" d="M332.09,237.46Z" fill="#fbfbfb"/>
      <path id="Tracé_536" data-name="Tracé 536" d="M333.72,236.8Z" fill="#fbfbfb"/>
      <path id="Tracé_537" data-name="Tracé 537" d="M332.4,237.62h0s.15.08.18.07h0v.07h.05s.11,0,.14-.07h0v.08h.19a.21.21,0,0,1,0-.06h.12a4.82,4.82,0,0,0,.28-.86h0a1.867,1.867,0,0,0-.25,0h0a2.3,2.3,0,0,0-.26,0h0a.39.39,0,0,1-.2-.08h-.06s-.11-.06-.14,0h0a.1.1,0,0,1,0,.06h-.06s0-.06-.08,0v-.06h0a8.335,8.335,0,0,0-.25.89h0a.4.4,0,0,0,.15.09h.05A1.662,1.662,0,0,1,332.4,237.62Z" fill="#fbfbfb"/>
      <g id="Groupe_128" data-name="Groupe 128" opacity="0.2">
        <path id="Tracé_538" data-name="Tracé 538" d="M348.91,225.27a31.569,31.569,0,0,0,3.21,8.45,4.09,4.09,0,0,0,1.84,2c1.54.63,3.16-.62,4.36-1.77a2.89,2.89,0,0,0,2.51,2.82,6.18,6.18,0,0,0,4-1,25,25,0,0,0,7.64-7.42,52.386,52.386,0,0,1-5.59,4c-1.36.85-3.08,1.66-4.52.94s-2.07-2.62-3.61-2.73c-2-.14-3.15,3-5.12,2.68-1.13-.16-1.76-1.36-2.2-2.41l-2.39-5.7"/>
      </g>
      <g id="Groupe_129" data-name="Groupe 129" opacity="0.2">
        <path id="Tracé_539" data-name="Tracé 539" d="M370.82,302.25a3.65,3.65,0,0,1,.38-2.84,3,3,0,0,1,2.27-.89,18,18,0,0,1,5.53,1.17,39.27,39.27,0,0,0,12.71,1.57,11.43,11.43,0,0,1-6.64,2.48,33.94,33.94,0,0,1-7.18-.5l-7.43-1"/>
      </g>
      <path id="Tracé_540" data-name="Tracé 540" d="M318.71,409.8l.29,42.02,18.87-1.35,4.22-40.93Z" fill="#ffbe9d"/>
      <path id="Tracé_541" data-name="Tracé 541" d="M338.53,442.22s-13.28,9.43-19.71,1.27l-1.68,3.95-7.56,28.18a3.78,3.78,0,0,0,2.13,4.52,3.64,3.64,0,0,0,3.86-.74c5.47-5.2,25.47-24.42,25.28-27l-.08-6.92a3.52,3.52,0,0,0-2.24-3.24Z" fill="#ff725e"/>
      <path id="Tracé_542" data-name="Tracé 542" d="M312.36,480.33,340.86,450v1.51c.14,1.64-.57,2.28-1.35,3.33-2.31,3.11-8.69,10.07-23.82,24.59a3.63,3.63,0,0,1-3.32.93Z" fill="#fff" opacity="0.6"/>
      <g id="Groupe_130" data-name="Groupe 130" opacity="0.6">
        <path id="Tracé_543" data-name="Tracé 543" d="M336.68,445.47a2.22,2.22,0,0,0-.62,2.88,2.13,2.13,0,0,0,2.86.64,2.34,2.34,0,0,0,.64-3.06,2.21,2.21,0,0,0-3.05-.33" fill="#fff"/>
      </g>
      <path id="Tracé_544" data-name="Tracé 544" d="M320.57,464.78c-.2.1-1-1.77-3.11-2.79s-4.06-.58-4.1-.8.42-.36,1.25-.48a5.83,5.83,0,0,1,5.59,2.78C320.61,464.22,320.66,464.75,320.57,464.78Z" fill="#263238"/>
      <path id="Tracé_545" data-name="Tracé 545" d="M318,469.54c-.17.16-1.31-1-3.15-1.54s-3.42-.24-3.48-.47,1.62-.93,3.71-.28S318.2,469.45,318,469.54Z" fill="#263238"/>
      <path id="Tracé_546" data-name="Tracé 546" d="M325.33,458.68c-.17.17-1.91-1.63-4.71-2.72s-5.28-1-5.28-1.25,2.59-.68,5.57.52S325.5,458.58,325.33,458.68Z" fill="#263238"/>
      <path id="Tracé_547" data-name="Tracé 547" d="M326,450.1c-.1.21-2.06-.62-4.63-.72s-4.59.5-4.67.28,2-1.2,4.71-1.06S326.07,449.94,326,450.1Z" fill="#263238"/>
      <path id="Tracé_548" data-name="Tracé 548" d="M319.87,449.3a3.27,3.27,0,0,1,.2-1.33,9.4,9.4,0,0,1,1.71-3.28,4.15,4.15,0,0,1,2.12-1.62,1.45,1.45,0,0,1,1.56.63,2.37,2.37,0,0,1,.26,1.68,5.17,5.17,0,0,1-5.33,3.87,6,6,0,0,1-5.21-4.17,2.06,2.06,0,0,1,.23-1.71,1.44,1.44,0,0,1,1.62-.48,5.12,5.12,0,0,1,2.08,1.64A10.19,10.19,0,0,1,321,447.7a3.191,3.191,0,0,1,.32,1.31,16.761,16.761,0,0,0-2.61-4.11,4.65,4.65,0,0,0-1.85-1.38.77.77,0,0,0-.89.25,1.49,1.49,0,0,0-.08,1.14,5.35,5.35,0,0,0,4.56,3.55,4.48,4.48,0,0,0,4.57-3.21,1.74,1.74,0,0,0-.13-1.19.8.8,0,0,0-.86-.35,3.69,3.69,0,0,0-1.82,1.34,13.849,13.849,0,0,0-2.34,4.25Z" fill="#263238"/>
      <path id="Tracé_549" data-name="Tracé 549" d="M274.27,373.64l-23.09,43.83,18.43,11.04,29.81-41.99Z" fill="#ffbe9d"/>
      <path id="Tracé_550" data-name="Tracé 550" d="M254.06,411.61l-.75,1.21s-25.74-4.38-28.37-.6l41.13,25,7.75-14C266,422.28,259.39,418.71,254.06,411.61Z" fill="#ff725e"/>
      <g id="Groupe_131" data-name="Groupe 131" opacity="0.6">
        <path id="Tracé_551" data-name="Tracé 551" d="M267,425a2,2,0,0,1,0,2.62,1.89,1.89,0,0,1-2.6,0,2.07,2.07,0,0,1,0-2.78,2,2,0,0,1,2.7.28" fill="#fff"/>
      </g>
      <g id="Groupe_132" data-name="Groupe 132" opacity="0.6">
        <path id="Tracé_552" data-name="Tracé 552" d="M266.07,437.19l1.87-3.38-40.11-22.69s-2.31-.32-2.89,1.1Z" fill="#fff"/>
      </g>
      <path id="Tracé_553" data-name="Tracé 553" d="M253.09,412.85c-.11.21.84.91,1.43,2.15s.61,2.41.85,2.44.64-1.31-.11-2.8S253.16,412.64,253.09,412.85Z" fill="#263238"/>
      <path id="Tracé_554" data-name="Tracé 554" d="M247.7,412c-.17.16.5,1,.66,2.3s-.18,2.28,0,2.39,1-.95.78-2.51S247.82,411.83,247.7,412Z" fill="#263238"/>
      <path id="Tracé_555" data-name="Tracé 555" d="M242.11,415.69c.16.16,1-.68,1.2-2.09s-.52-2.42-.71-2.31,0,1.06-.1,2.22S241.93,415.55,242.11,415.69Z" fill="#263238"/>
      <path id="Tracé_556" data-name="Tracé 556" d="M296.04,381.88v89.88h6.12V374.73Z" fill="#e0e0e0"/>
      <rect id="Rectangle_41" data-name="Rectangle 41" width="5.95" height="103.96" transform="translate(384.9 367.81)" fill="#e0e0e0"/>
      <rect id="Rectangle_42" data-name="Rectangle 42" width="82.74" height="6.64" transform="translate(302.16 381.88)" fill="#e0e0e0"/>
      <rect id="Rectangle_43" data-name="Rectangle 43" width="91.56" height="18.81" rx="3.75" transform="translate(302.16 348.99)" fill="#ff725e"/>
      <path id="Tracé_557" data-name="Tracé 557" d="M386.88,304.39s12.44,22.08,10.6,37.51-5.24,15.43-5.24,15.43l-40.33-2.22-5.79-48.49,9.83-5.51Z" fill="#263238"/>
      <path id="Tracé_558" data-name="Tracé 558" d="M281.78,254.14l10.08,48.03,47.6,4.41,30.69-2.11-11.12-10.64-12.91,2.76-4.59-46.48Z" fill="#455a64"/>
      <path id="Tracé_559" data-name="Tracé 559" d="M348.13,293.69c1.39,3.84,7.94.23,7.94.23l-.45,6.84-4.08,2.91s0,1.84,2.69,2a9.21,9.21,0,0,0,3.78-.28l.15.91a2.14,2.14,0,0,0,2.06,1.81,2.67,2.67,0,0,0,1.27-.21s2.86,2.07,5.56.57a7.52,7.52,0,0,0,3.41-4.42l.44-5.65,3.46-2.4s2.85-5.27-.72-8.9a7.11,7.11,0,0,0-7.3-1.6l-5.54,1.84a5.66,5.66,0,0,0-3.94,1.05c-.92.67-2.07,1.47-3.08,2.07C353.78,290.49,347.84,292.89,348.13,293.69Z" fill="#ffbe9d"/>
      <path id="Tracé_560" data-name="Tracé 560" d="M361,299.34c.07,0,.17.44.26,1.15a8.571,8.571,0,0,1,0,2.87,3.08,3.08,0,0,1-.75,1.47,2.59,2.59,0,0,1-1.16.71c-.79.2-1.24-.13-1.2-.17a2.964,2.964,0,0,0,1.08-.18,2.67,2.67,0,0,0,1.53-1.95,13.422,13.422,0,0,0,.14-2.73C360.85,299.79,360.89,299.35,361,299.34Z" fill="#eb996e"/>
      <path id="Tracé_561" data-name="Tracé 561" d="M356.07,293.92a11.281,11.281,0,0,1,0,3.43,11.519,11.519,0,0,1-.49,3.41,23.088,23.088,0,0,1,.45-6.84Z" fill="#eb996e"/>
      <path id="Tracé_562" data-name="Tracé 562" d="M365.6,301a3.391,3.391,0,0,1,.26,1.33,5.631,5.631,0,0,1-.6,3.27,5.14,5.14,0,0,1-2.59,2.09c-.8.31-1.32.36-1.34.29a6.373,6.373,0,0,1,1.19-.62,5.68,5.68,0,0,0,2.29-2,6.39,6.39,0,0,0,.68-3C365.51,301.5,365.52,301,365.6,301Z" fill="#eb996e"/>
      <path id="Tracé_563" data-name="Tracé 563" d="M373.13,298a17.887,17.887,0,0,1,1.29-2.5,8,8,0,0,0,.81-2.85,7.08,7.08,0,0,0-2.7-6.37,8.09,8.09,0,0,0-2.64-1.33,19.629,19.629,0,0,0-2.75-.44,2,2,0,0,1,.76-.12,7.84,7.84,0,0,1,2.08.2,8,8,0,0,1,2.84,1.31,7.29,7.29,0,0,1,2.37,3,7.4,7.4,0,0,1,.52,3.79,7.931,7.931,0,0,1-1,3,20.515,20.515,0,0,1-1.14,1.74C373.32,297.83,373.16,298.05,373.13,298Z" fill="#263238"/>
      <path id="Tracé_564" data-name="Tracé 564" d="M316.17,276.68a3,3,0,1,1-3-3A3,3,0,0,1,316.17,276.68Z" fill="#fafafa"/>
      <path id="Tracé_565" data-name="Tracé 565" d="M322,329.36l-.27.16a19,19,0,0,0-9.19,17.18l3,65,29.19,2.94.94-58.8,12.13-1.47L337.59,331.7A12.35,12.35,0,0,0,322,329.36Z" fill="#263238"/>
      <path id="Tracé_566" data-name="Tracé 566" d="M266.7,385.43l38.91-78.07s5.51-8.09,13.23-7.72,55.85,15.8,55.85,15.8v39.32l-16.9-.37-38.22-3.67-25.79,49.84Z" fill="#263238"/>
      <path id="Tracé_567" data-name="Tracé 567" d="M359.6,354.43a1.891,1.891,0,0,1-.31-.34l-.87-1-3.29-4L343.3,334.43h0c-2.86-4.6-9.41-7.33-16-6.21a17.51,17.51,0,0,0-9.12,4.44,13.56,13.56,0,0,0-3.11,4.32,17,17,0,0,0-1.3,5.33,65,65,0,0,0-.15,6.68c0,2.21,0,4.39.06,6.52.08,4.28.15,8.4.22,12.33.17,7.85.4,14.93.62,20.86s.45,10.71.59,14.07c.07,1.63.12,2.91.16,3.82v1a1.72,1.72,0,0,1,0,.34,1.677,1.677,0,0,1,0-.33,4.992,4.992,0,0,0-.08-1c-.07-.9-.15-2.18-.26-3.81-.21-3.32-.49-8.12-.75-14.06s-.54-13-.74-20.87c-.08-3.93-.16-8.05-.25-12.33q0-3.21-.07-6.52a66.386,66.386,0,0,1,.15-6.74,17.47,17.47,0,0,1,1.34-5.49,14.11,14.11,0,0,1,3.24-4.48,18,18,0,0,1,9.39-4.56c6.72-1.13,13.46,1.69,16.39,6.48h0l11.7,14.73c1.36,1.75,2.44,3.12,3.19,4.08l.82,1.07a2.933,2.933,0,0,1,.26.33Z" fill="#455a64"/>
      <path id="Tracé_568" data-name="Tracé 568" d="M345.19,382c-.15,0-.26-8.18-.26-18.27s.11-18.26.26-18.26.26,8.18.26,18.26S345.33,382,345.19,382Z" fill="#455a64"/>
      <path id="Tracé_569" data-name="Tracé 569" d="M383.91,320.74a1.86,1.86,0,0,1-.55-.18l-1.53-.61-5.62-2.3c-4.75-1.92-11.35-4.48-18.73-7s-14.14-4.66-19.06-6.11l-5.83-1.69-1.58-.47a1.91,1.91,0,0,1-.54-.2,3.428,3.428,0,0,1,.57.1l1.61.38c1.39.33,3.4.85,5.87,1.53,5,1.35,11.74,3.4,19.13,6s14,5.19,18.7,7.2c2.36,1,4.26,1.85,5.56,2.45l1.49.71A2.7,2.7,0,0,1,383.91,320.74Z" fill="#455a64"/>
      <path id="Tracé_570" data-name="Tracé 570" d="M385.08,312.31a27.348,27.348,0,0,1-3.59-.14c-2.2-.13-5.25-.29-8.63-.37l-8.64-.17a24.627,24.627,0,0,1-3.58-.19,3.251,3.251,0,0,1,1-.1c.62,0,1.52-.06,2.62-.08,2.22,0,5.28-.07,8.66,0s6.44.29,8.64.52c1.1.11,2,.22,2.61.32a4,4,0,0,1,.91.21Z" fill="#455a64"/>
      <path id="Tracé_571" data-name="Tracé 571" d="M298.53,390.66c-.08,0-1.11-1.41-3.07-3.51a40.867,40.867,0,0,0-3.66-3.45,45.011,45.011,0,0,0-5-3.56,44.161,44.161,0,0,0-5.5-2.76,41.747,41.747,0,0,0-4.77-1.63c-2.77-.75-4.54-1-4.53-1.06a4.9,4.9,0,0,1,1.25.09,12.738,12.738,0,0,1,1.46.22c.57.11,1.22.21,1.91.4a35.66,35.66,0,0,1,4.86,1.53,42.4,42.4,0,0,1,5.59,2.76,40.721,40.721,0,0,1,5.06,3.65,37.305,37.305,0,0,1,3.62,3.56c.5.53.89,1.06,1.25,1.51a11.874,11.874,0,0,1,.88,1.18,5.449,5.449,0,0,1,.65,1.07Z" fill="#455a64"/>
      <path id="Tracé_572" data-name="Tracé 572" d="M346.07,405.41c0,.09-1.62-.78-4.3-1.89a49.49,49.49,0,0,0-22.13-3.6c-2.89.2-4.67.53-4.68.43a6.249,6.249,0,0,1,1.23-.3,31.993,31.993,0,0,1,3.42-.49,44.412,44.412,0,0,1,11.39.38,44.859,44.859,0,0,1,10.92,3.24,31.422,31.422,0,0,1,3.08,1.56A5.533,5.533,0,0,1,346.07,405.41Z" fill="#455a64"/>
    </g>
  </g>
</svg>
